M48
; DRILL file {KiCad (5.1.6)-1} date 02/01/22 17:42:14
; FORMAT={-:-/ absolute / inch / decimal}
; #@! TF.CreationDate,2022-02-01T17:42:14+01:00
; #@! TF.GenerationSoftware,Kicad,Pcbnew,(5.1.6)-1
FMAT,2
INCH
T1C0.0157
T2C0.0350
T3C0.0374
T4C0.0394
T5C0.0453
T6C0.0791
%
G90
G05
T1
X4.325Y-4.825
X4.45Y-4.975
X5.0Y-3.275
X5.05Y-3.45
X5.1Y-3.2535
X5.1Y-3.6
X5.125Y-4.475
X5.15Y-4.6
X5.45Y-3.2
X5.45Y-4.7
X5.55Y-4.9
X5.7Y-3.2
X5.85Y-4.725
X5.9Y-3.2
X6.1Y-4.725
X6.225Y-4.85
X6.3Y-3.175
X6.5Y-3.2
X6.6Y-3.5
X6.7Y-4.775
X6.725Y-3.725
T2
X4.0Y-5.0
X4.1Y-5.0
X3.0Y-5.0
X3.1Y-5.0
X3.9Y-2.8
X4.0Y-2.8
X5.0Y-5.0
X5.1Y-5.0
X2.9Y-2.8
X3.0Y-2.8
X5.9Y-2.8
X6.0Y-2.8
X6.0Y-5.0
X6.1Y-5.0
X4.9Y-2.8
X5.0Y-2.8
T3
X3.15Y-4.65
X3.15Y-4.75
X3.475Y-3.65
X3.475Y-3.75
X3.15Y-3.65
X3.15Y-3.75
X4.775Y-4.65
X4.775Y-4.75
X2.825Y-4.65
X2.825Y-4.75
X2.5Y-3.65
X2.5Y-3.75
X3.8Y-4.65
X3.8Y-4.75
X4.45Y-3.65
X4.45Y-3.75
X4.45Y-4.65
X4.45Y-4.75
X3.475Y-4.65
X3.475Y-4.75
X2.5Y-4.65
X2.5Y-4.75
X4.125Y-3.65
X4.125Y-3.75
X4.775Y-3.65
X4.775Y-3.75
X3.8Y-3.65
X3.8Y-3.75
X4.125Y-4.65
X4.125Y-4.75
X2.825Y-3.65
X2.825Y-3.75
T4
X5.25Y-3.65
X5.25Y-4.25
X5.35Y-3.65
X5.35Y-4.25
X5.45Y-3.65
X5.45Y-4.25
X5.55Y-3.65
X5.55Y-4.25
X5.65Y-3.65
X5.65Y-4.25
X5.75Y-3.65
X5.75Y-4.25
X5.85Y-3.65
X5.85Y-4.25
X5.95Y-3.65
X5.95Y-4.25
X6.05Y-3.65
X6.05Y-4.25
X6.15Y-3.65
X6.15Y-4.25
X6.25Y-3.65
X6.25Y-4.25
X6.35Y-3.65
X6.35Y-4.25
X6.45Y-3.65
X6.45Y-4.25
X6.55Y-3.65
X6.55Y-4.25
X6.65Y-3.65
X6.65Y-4.25
T5
X3.15Y-4.05
X3.15Y-4.35
X3.475Y-3.05
X3.475Y-3.35
X3.15Y-3.05
X3.15Y-3.35
X4.775Y-4.05
X4.775Y-4.35
X2.825Y-4.05
X2.825Y-4.35
X2.5Y-3.05
X2.5Y-3.35
X3.8Y-4.05
X3.8Y-4.35
X4.45Y-3.05
X4.45Y-3.35
X4.45Y-4.05
X4.45Y-4.35
X3.475Y-4.05
X3.475Y-4.35
X2.5Y-4.05
X2.5Y-4.35
X4.125Y-3.05
X4.125Y-3.35
X4.775Y-3.05
X4.775Y-3.35
X3.8Y-3.05
X3.8Y-3.35
X4.125Y-4.05
X4.125Y-4.35
X2.825Y-3.05
X2.825Y-3.35
T6
X5.8Y-2.6
X6.2Y-2.6
X5.8Y-5.2
X6.2Y-5.2
X4.8Y-2.6
X5.2Y-2.6
X3.8Y-5.2
X4.2Y-5.2
X2.8Y-5.2
X3.2Y-5.2
X3.8Y-2.6
X4.2Y-2.6
X4.8Y-5.2
X5.2Y-5.2
X2.8Y-2.6
X3.2Y-2.6
T0
M30
