%TF.GenerationSoftware,KiCad,Pcbnew,(5.1.6)-1*%
%TF.CreationDate,2022-02-01T20:58:30+01:00*%
%TF.ProjectId,Omniplex,4f6d6e69-706c-4657-982e-6b696361645f,rev?*%
%TF.SameCoordinates,Original*%
%TF.FileFunction,Soldermask,Bot*%
%TF.FilePolarity,Negative*%
%FSLAX46Y46*%
G04 Gerber Fmt 4.6, Leading zero omitted, Abs format (unit mm)*
G04 Created by KiCad (PCBNEW (5.1.6)-1) date 2022-02-01 20:58:30*
%MOMM*%
%LPD*%
G01*
G04 APERTURE LIST*
%ADD10O,1.700000X2.600000*%
%ADD11O,3.600000X7.100000*%
%ADD12C,1.878000*%
%ADD13R,1.878000X1.878000*%
%ADD14C,2.000000*%
%ADD15O,1.700000X1.700000*%
%ADD16R,1.700000X1.700000*%
G04 APERTURE END LIST*
D10*
%TO.C,J8*%
X154940000Y-127000000D03*
X152400000Y-127000000D03*
D11*
X147320000Y-132080000D03*
X157480000Y-132080000D03*
%TD*%
D10*
%TO.C,J7*%
X129540000Y-127000000D03*
X127000000Y-127000000D03*
D11*
X121920000Y-132080000D03*
X132080000Y-132080000D03*
%TD*%
D10*
%TO.C,J6*%
X104140000Y-127000000D03*
X101600000Y-127000000D03*
D11*
X96520000Y-132080000D03*
X106680000Y-132080000D03*
%TD*%
D10*
%TO.C,J5*%
X78740000Y-127000000D03*
X76200000Y-127000000D03*
D11*
X71120000Y-132080000D03*
X81280000Y-132080000D03*
%TD*%
D10*
%TO.C,J4*%
X149860000Y-71120000D03*
X152400000Y-71120000D03*
D11*
X157480000Y-66040000D03*
X147320000Y-66040000D03*
%TD*%
D10*
%TO.C,J3*%
X124460000Y-71120000D03*
X127000000Y-71120000D03*
D11*
X132080000Y-66040000D03*
X121920000Y-66040000D03*
%TD*%
D10*
%TO.C,J2*%
X99060000Y-71120000D03*
X101600000Y-71120000D03*
D11*
X106680000Y-66040000D03*
X96520000Y-66040000D03*
%TD*%
D10*
%TO.C,J1*%
X73660000Y-71120000D03*
X76200000Y-71120000D03*
D11*
X81280000Y-66040000D03*
X71120000Y-66040000D03*
%TD*%
D12*
%TO.C,K16*%
X121285000Y-118110000D03*
D13*
X121285000Y-120650000D03*
D14*
X121285000Y-110490000D03*
X121285000Y-102870000D03*
%TD*%
D12*
%TO.C,K15*%
X113030000Y-118110000D03*
D13*
X113030000Y-120650000D03*
D14*
X113030000Y-110490000D03*
X113030000Y-102870000D03*
%TD*%
D12*
%TO.C,K14*%
X121285000Y-92710000D03*
D13*
X121285000Y-95250000D03*
D14*
X121285000Y-85090000D03*
X121285000Y-77470000D03*
%TD*%
D12*
%TO.C,K13*%
X113030000Y-92710000D03*
D13*
X113030000Y-95250000D03*
D14*
X113030000Y-85090000D03*
X113030000Y-77470000D03*
%TD*%
D12*
%TO.C,K12*%
X104775000Y-118110000D03*
D13*
X104775000Y-120650000D03*
D14*
X104775000Y-110490000D03*
X104775000Y-102870000D03*
%TD*%
D12*
%TO.C,K11*%
X96520000Y-118110000D03*
D13*
X96520000Y-120650000D03*
D14*
X96520000Y-110490000D03*
X96520000Y-102870000D03*
%TD*%
D12*
%TO.C,K10*%
X104775000Y-92710000D03*
D13*
X104775000Y-95250000D03*
D14*
X104775000Y-85090000D03*
X104775000Y-77470000D03*
%TD*%
D12*
%TO.C,K9*%
X96520000Y-92710000D03*
D13*
X96520000Y-95250000D03*
D14*
X96520000Y-85090000D03*
X96520000Y-77470000D03*
%TD*%
D12*
%TO.C,K8*%
X88265000Y-118110000D03*
D13*
X88265000Y-120650000D03*
D14*
X88265000Y-110490000D03*
X88265000Y-102870000D03*
%TD*%
D12*
%TO.C,K7*%
X80010000Y-118110000D03*
D13*
X80010000Y-120650000D03*
D14*
X80010000Y-110490000D03*
X80010000Y-102870000D03*
%TD*%
D12*
%TO.C,K6*%
X88265000Y-92710000D03*
D13*
X88265000Y-95250000D03*
D14*
X88265000Y-85090000D03*
X88265000Y-77470000D03*
%TD*%
D12*
%TO.C,K5*%
X80010000Y-92710000D03*
D13*
X80010000Y-95250000D03*
D14*
X80010000Y-85090000D03*
X80010000Y-77470000D03*
%TD*%
D12*
%TO.C,K4*%
X71755000Y-118110000D03*
D13*
X71755000Y-120650000D03*
D14*
X71755000Y-110490000D03*
X71755000Y-102870000D03*
%TD*%
D12*
%TO.C,K3*%
X63500000Y-118110000D03*
D13*
X63500000Y-120650000D03*
D14*
X63500000Y-110490000D03*
X63500000Y-102870000D03*
%TD*%
D12*
%TO.C,K2*%
X71755000Y-92710000D03*
D13*
X71755000Y-95250000D03*
D14*
X71755000Y-85090000D03*
X71755000Y-77470000D03*
%TD*%
D12*
%TO.C,K1*%
X63500000Y-92710000D03*
D13*
X63500000Y-95250000D03*
D14*
X63500000Y-85090000D03*
X63500000Y-77470000D03*
%TD*%
D15*
%TO.C,A1*%
X168910000Y-92710000D03*
X168910000Y-107950000D03*
X133350000Y-92710000D03*
X166370000Y-107950000D03*
X135890000Y-92710000D03*
X163830000Y-107950000D03*
X138430000Y-92710000D03*
X161290000Y-107950000D03*
X140970000Y-92710000D03*
X158750000Y-107950000D03*
X143510000Y-92710000D03*
X156210000Y-107950000D03*
X146050000Y-92710000D03*
X153670000Y-107950000D03*
X148590000Y-92710000D03*
X151130000Y-107950000D03*
X151130000Y-92710000D03*
X148590000Y-107950000D03*
X153670000Y-92710000D03*
X146050000Y-107950000D03*
X156210000Y-92710000D03*
X143510000Y-107950000D03*
X158750000Y-92710000D03*
X140970000Y-107950000D03*
X161290000Y-92710000D03*
X138430000Y-107950000D03*
X163830000Y-92710000D03*
X135890000Y-107950000D03*
X166370000Y-92710000D03*
D16*
X133350000Y-107950000D03*
%TD*%
M02*
