%TF.GenerationSoftware,KiCad,Pcbnew,(5.1.6)-1*%
%TF.CreationDate,2022-02-01T20:51:07+01:00*%
%TF.ProjectId,Omniplex,4f6d6e69-706c-4657-982e-6b696361645f,rev?*%
%TF.SameCoordinates,Original*%
%TF.FileFunction,Legend,Top*%
%TF.FilePolarity,Positive*%
%FSLAX46Y46*%
G04 Gerber Fmt 4.6, Leading zero omitted, Abs format (unit mm)*
G04 Created by KiCad (PCBNEW (5.1.6)-1) date 2022-02-01 20:51:07*
%MOMM*%
%LPD*%
G01*
G04 APERTURE LIST*
%ADD10C,0.120000*%
%ADD11C,0.150000*%
G04 APERTURE END LIST*
D10*
%TO.C,D16*%
X119480000Y-120180000D02*
X119480000Y-117720000D01*
X119480000Y-117720000D02*
X118010000Y-117720000D01*
X118010000Y-117720000D02*
X118010000Y-120180000D01*
%TO.C,D15*%
X111225000Y-120180000D02*
X111225000Y-117720000D01*
X111225000Y-117720000D02*
X109755000Y-117720000D01*
X109755000Y-117720000D02*
X109755000Y-120180000D01*
%TO.C,D14*%
X119480000Y-94780000D02*
X119480000Y-92320000D01*
X119480000Y-92320000D02*
X118010000Y-92320000D01*
X118010000Y-92320000D02*
X118010000Y-94780000D01*
%TO.C,D13*%
X111225000Y-94780000D02*
X111225000Y-92320000D01*
X111225000Y-92320000D02*
X109755000Y-92320000D01*
X109755000Y-92320000D02*
X109755000Y-94780000D01*
%TO.C,D12*%
X102970000Y-120180000D02*
X102970000Y-117720000D01*
X102970000Y-117720000D02*
X101500000Y-117720000D01*
X101500000Y-117720000D02*
X101500000Y-120180000D01*
%TO.C,D11*%
X94715000Y-120180000D02*
X94715000Y-117720000D01*
X94715000Y-117720000D02*
X93245000Y-117720000D01*
X93245000Y-117720000D02*
X93245000Y-120180000D01*
%TO.C,D10*%
X102970000Y-94780000D02*
X102970000Y-92320000D01*
X102970000Y-92320000D02*
X101500000Y-92320000D01*
X101500000Y-92320000D02*
X101500000Y-94780000D01*
%TO.C,D9*%
X94715000Y-94780000D02*
X94715000Y-92320000D01*
X94715000Y-92320000D02*
X93245000Y-92320000D01*
X93245000Y-92320000D02*
X93245000Y-94780000D01*
%TO.C,D8*%
X86460000Y-120180000D02*
X86460000Y-117720000D01*
X86460000Y-117720000D02*
X84990000Y-117720000D01*
X84990000Y-117720000D02*
X84990000Y-120180000D01*
%TO.C,D7*%
X78205000Y-120180000D02*
X78205000Y-117720000D01*
X78205000Y-117720000D02*
X76735000Y-117720000D01*
X76735000Y-117720000D02*
X76735000Y-120180000D01*
%TO.C,D6*%
X86460000Y-94780000D02*
X86460000Y-92320000D01*
X86460000Y-92320000D02*
X84990000Y-92320000D01*
X84990000Y-92320000D02*
X84990000Y-94780000D01*
%TO.C,D5*%
X78205000Y-94780000D02*
X78205000Y-92320000D01*
X78205000Y-92320000D02*
X76735000Y-92320000D01*
X76735000Y-92320000D02*
X76735000Y-94780000D01*
%TO.C,D4*%
X69950000Y-120180000D02*
X69950000Y-117720000D01*
X69950000Y-117720000D02*
X68480000Y-117720000D01*
X68480000Y-117720000D02*
X68480000Y-120180000D01*
%TO.C,D3*%
X61695000Y-120180000D02*
X61695000Y-117720000D01*
X61695000Y-117720000D02*
X60225000Y-117720000D01*
X60225000Y-117720000D02*
X60225000Y-120180000D01*
%TO.C,D2*%
X69950000Y-94780000D02*
X69950000Y-92320000D01*
X69950000Y-92320000D02*
X68480000Y-92320000D01*
X68480000Y-92320000D02*
X68480000Y-94780000D01*
%TO.C,D1*%
X61695000Y-94780000D02*
X61695000Y-92320000D01*
X61695000Y-92320000D02*
X60225000Y-92320000D01*
X60225000Y-92320000D02*
X60225000Y-94780000D01*
%TO.C,J8*%
X159900000Y-139700000D02*
X144900000Y-139700000D01*
X144900000Y-139700000D02*
X144900000Y-124700000D01*
X144900000Y-124700000D02*
X159900000Y-124700000D01*
X159900000Y-124700000D02*
X159900000Y-139700000D01*
X152400000Y-139500000D02*
X153400000Y-138500000D01*
X152400000Y-139500000D02*
X151400000Y-138500000D01*
%TO.C,J7*%
X134500000Y-139700000D02*
X119500000Y-139700000D01*
X119500000Y-139700000D02*
X119500000Y-124700000D01*
X119500000Y-124700000D02*
X134500000Y-124700000D01*
X134500000Y-124700000D02*
X134500000Y-139700000D01*
X127000000Y-139500000D02*
X128000000Y-138500000D01*
X127000000Y-139500000D02*
X126000000Y-138500000D01*
%TO.C,J6*%
X109100000Y-139700000D02*
X94100000Y-139700000D01*
X94100000Y-139700000D02*
X94100000Y-124700000D01*
X94100000Y-124700000D02*
X109100000Y-124700000D01*
X109100000Y-124700000D02*
X109100000Y-139700000D01*
X101600000Y-139500000D02*
X102600000Y-138500000D01*
X101600000Y-139500000D02*
X100600000Y-138500000D01*
%TO.C,J5*%
X83700000Y-139700000D02*
X68700000Y-139700000D01*
X68700000Y-139700000D02*
X68700000Y-124700000D01*
X68700000Y-124700000D02*
X83700000Y-124700000D01*
X83700000Y-124700000D02*
X83700000Y-139700000D01*
X76200000Y-139500000D02*
X77200000Y-138500000D01*
X76200000Y-139500000D02*
X75200000Y-138500000D01*
%TO.C,J4*%
X144900000Y-58420000D02*
X159900000Y-58420000D01*
X159900000Y-58420000D02*
X159900000Y-73420000D01*
X159900000Y-73420000D02*
X144900000Y-73420000D01*
X144900000Y-73420000D02*
X144900000Y-58420000D01*
X152400000Y-58620000D02*
X151400000Y-59620000D01*
X152400000Y-58620000D02*
X153400000Y-59620000D01*
%TO.C,J3*%
X119500000Y-58420000D02*
X134500000Y-58420000D01*
X134500000Y-58420000D02*
X134500000Y-73420000D01*
X134500000Y-73420000D02*
X119500000Y-73420000D01*
X119500000Y-73420000D02*
X119500000Y-58420000D01*
X127000000Y-58620000D02*
X126000000Y-59620000D01*
X127000000Y-58620000D02*
X128000000Y-59620000D01*
%TO.C,J2*%
X94100000Y-58420000D02*
X109100000Y-58420000D01*
X109100000Y-58420000D02*
X109100000Y-73420000D01*
X109100000Y-73420000D02*
X94100000Y-73420000D01*
X94100000Y-73420000D02*
X94100000Y-58420000D01*
X101600000Y-58620000D02*
X100600000Y-59620000D01*
X101600000Y-58620000D02*
X102600000Y-59620000D01*
%TO.C,J1*%
X68700000Y-58420000D02*
X83700000Y-58420000D01*
X83700000Y-58420000D02*
X83700000Y-73420000D01*
X83700000Y-73420000D02*
X68700000Y-73420000D01*
X68700000Y-73420000D02*
X68700000Y-58420000D01*
X76200000Y-58620000D02*
X75200000Y-59620000D01*
X76200000Y-58620000D02*
X77200000Y-59620000D01*
%TO.C,K16*%
X119965000Y-122240000D02*
X119965000Y-120750000D01*
X121815000Y-122240000D02*
X119965000Y-122240000D01*
X123435000Y-110560000D02*
X122835000Y-110560000D01*
X123435000Y-107360000D02*
X123435000Y-110560000D01*
X123435000Y-105760000D02*
X124035000Y-107160000D01*
X123435000Y-102860000D02*
X123435000Y-105760000D01*
X122835000Y-102860000D02*
X123435000Y-102860000D01*
X122935000Y-120050000D02*
X123735000Y-118650000D01*
X123335000Y-118150000D02*
X122635000Y-118150000D01*
X123335000Y-118650000D02*
X123335000Y-118150000D01*
X123735000Y-120050000D02*
X123335000Y-120050000D01*
X123735000Y-118650000D02*
X123735000Y-120050000D01*
X122935000Y-118650000D02*
X123735000Y-118650000D01*
X122935000Y-120050000D02*
X122935000Y-118650000D01*
X123335000Y-120050000D02*
X122935000Y-120050000D01*
X123335000Y-120650000D02*
X123335000Y-120050000D01*
X122635000Y-120650000D02*
X123335000Y-120650000D01*
X120135000Y-122070000D02*
X125335000Y-122070000D01*
X125335000Y-122070000D02*
X125335000Y-101470000D01*
X125335000Y-101470000D02*
X120135000Y-101470000D01*
X120135000Y-101470000D02*
X120135000Y-122070000D01*
%TO.C,K15*%
X111710000Y-122240000D02*
X111710000Y-120750000D01*
X113560000Y-122240000D02*
X111710000Y-122240000D01*
X115180000Y-110560000D02*
X114580000Y-110560000D01*
X115180000Y-107360000D02*
X115180000Y-110560000D01*
X115180000Y-105760000D02*
X115780000Y-107160000D01*
X115180000Y-102860000D02*
X115180000Y-105760000D01*
X114580000Y-102860000D02*
X115180000Y-102860000D01*
X114680000Y-120050000D02*
X115480000Y-118650000D01*
X115080000Y-118150000D02*
X114380000Y-118150000D01*
X115080000Y-118650000D02*
X115080000Y-118150000D01*
X115480000Y-120050000D02*
X115080000Y-120050000D01*
X115480000Y-118650000D02*
X115480000Y-120050000D01*
X114680000Y-118650000D02*
X115480000Y-118650000D01*
X114680000Y-120050000D02*
X114680000Y-118650000D01*
X115080000Y-120050000D02*
X114680000Y-120050000D01*
X115080000Y-120650000D02*
X115080000Y-120050000D01*
X114380000Y-120650000D02*
X115080000Y-120650000D01*
X111880000Y-122070000D02*
X117080000Y-122070000D01*
X117080000Y-122070000D02*
X117080000Y-101470000D01*
X117080000Y-101470000D02*
X111880000Y-101470000D01*
X111880000Y-101470000D02*
X111880000Y-122070000D01*
%TO.C,K14*%
X119965000Y-96840000D02*
X119965000Y-95350000D01*
X121815000Y-96840000D02*
X119965000Y-96840000D01*
X123435000Y-85160000D02*
X122835000Y-85160000D01*
X123435000Y-81960000D02*
X123435000Y-85160000D01*
X123435000Y-80360000D02*
X124035000Y-81760000D01*
X123435000Y-77460000D02*
X123435000Y-80360000D01*
X122835000Y-77460000D02*
X123435000Y-77460000D01*
X122935000Y-94650000D02*
X123735000Y-93250000D01*
X123335000Y-92750000D02*
X122635000Y-92750000D01*
X123335000Y-93250000D02*
X123335000Y-92750000D01*
X123735000Y-94650000D02*
X123335000Y-94650000D01*
X123735000Y-93250000D02*
X123735000Y-94650000D01*
X122935000Y-93250000D02*
X123735000Y-93250000D01*
X122935000Y-94650000D02*
X122935000Y-93250000D01*
X123335000Y-94650000D02*
X122935000Y-94650000D01*
X123335000Y-95250000D02*
X123335000Y-94650000D01*
X122635000Y-95250000D02*
X123335000Y-95250000D01*
X120135000Y-96670000D02*
X125335000Y-96670000D01*
X125335000Y-96670000D02*
X125335000Y-76070000D01*
X125335000Y-76070000D02*
X120135000Y-76070000D01*
X120135000Y-76070000D02*
X120135000Y-96670000D01*
%TO.C,K13*%
X111710000Y-96840000D02*
X111710000Y-95350000D01*
X113560000Y-96840000D02*
X111710000Y-96840000D01*
X115180000Y-85160000D02*
X114580000Y-85160000D01*
X115180000Y-81960000D02*
X115180000Y-85160000D01*
X115180000Y-80360000D02*
X115780000Y-81760000D01*
X115180000Y-77460000D02*
X115180000Y-80360000D01*
X114580000Y-77460000D02*
X115180000Y-77460000D01*
X114680000Y-94650000D02*
X115480000Y-93250000D01*
X115080000Y-92750000D02*
X114380000Y-92750000D01*
X115080000Y-93250000D02*
X115080000Y-92750000D01*
X115480000Y-94650000D02*
X115080000Y-94650000D01*
X115480000Y-93250000D02*
X115480000Y-94650000D01*
X114680000Y-93250000D02*
X115480000Y-93250000D01*
X114680000Y-94650000D02*
X114680000Y-93250000D01*
X115080000Y-94650000D02*
X114680000Y-94650000D01*
X115080000Y-95250000D02*
X115080000Y-94650000D01*
X114380000Y-95250000D02*
X115080000Y-95250000D01*
X111880000Y-96670000D02*
X117080000Y-96670000D01*
X117080000Y-96670000D02*
X117080000Y-76070000D01*
X117080000Y-76070000D02*
X111880000Y-76070000D01*
X111880000Y-76070000D02*
X111880000Y-96670000D01*
%TO.C,K12*%
X103455000Y-122240000D02*
X103455000Y-120750000D01*
X105305000Y-122240000D02*
X103455000Y-122240000D01*
X106925000Y-110560000D02*
X106325000Y-110560000D01*
X106925000Y-107360000D02*
X106925000Y-110560000D01*
X106925000Y-105760000D02*
X107525000Y-107160000D01*
X106925000Y-102860000D02*
X106925000Y-105760000D01*
X106325000Y-102860000D02*
X106925000Y-102860000D01*
X106425000Y-120050000D02*
X107225000Y-118650000D01*
X106825000Y-118150000D02*
X106125000Y-118150000D01*
X106825000Y-118650000D02*
X106825000Y-118150000D01*
X107225000Y-120050000D02*
X106825000Y-120050000D01*
X107225000Y-118650000D02*
X107225000Y-120050000D01*
X106425000Y-118650000D02*
X107225000Y-118650000D01*
X106425000Y-120050000D02*
X106425000Y-118650000D01*
X106825000Y-120050000D02*
X106425000Y-120050000D01*
X106825000Y-120650000D02*
X106825000Y-120050000D01*
X106125000Y-120650000D02*
X106825000Y-120650000D01*
X103625000Y-122070000D02*
X108825000Y-122070000D01*
X108825000Y-122070000D02*
X108825000Y-101470000D01*
X108825000Y-101470000D02*
X103625000Y-101470000D01*
X103625000Y-101470000D02*
X103625000Y-122070000D01*
%TO.C,K11*%
X95200000Y-122240000D02*
X95200000Y-120750000D01*
X97050000Y-122240000D02*
X95200000Y-122240000D01*
X98670000Y-110560000D02*
X98070000Y-110560000D01*
X98670000Y-107360000D02*
X98670000Y-110560000D01*
X98670000Y-105760000D02*
X99270000Y-107160000D01*
X98670000Y-102860000D02*
X98670000Y-105760000D01*
X98070000Y-102860000D02*
X98670000Y-102860000D01*
X98170000Y-120050000D02*
X98970000Y-118650000D01*
X98570000Y-118150000D02*
X97870000Y-118150000D01*
X98570000Y-118650000D02*
X98570000Y-118150000D01*
X98970000Y-120050000D02*
X98570000Y-120050000D01*
X98970000Y-118650000D02*
X98970000Y-120050000D01*
X98170000Y-118650000D02*
X98970000Y-118650000D01*
X98170000Y-120050000D02*
X98170000Y-118650000D01*
X98570000Y-120050000D02*
X98170000Y-120050000D01*
X98570000Y-120650000D02*
X98570000Y-120050000D01*
X97870000Y-120650000D02*
X98570000Y-120650000D01*
X95370000Y-122070000D02*
X100570000Y-122070000D01*
X100570000Y-122070000D02*
X100570000Y-101470000D01*
X100570000Y-101470000D02*
X95370000Y-101470000D01*
X95370000Y-101470000D02*
X95370000Y-122070000D01*
%TO.C,K10*%
X103455000Y-96840000D02*
X103455000Y-95350000D01*
X105305000Y-96840000D02*
X103455000Y-96840000D01*
X106925000Y-85160000D02*
X106325000Y-85160000D01*
X106925000Y-81960000D02*
X106925000Y-85160000D01*
X106925000Y-80360000D02*
X107525000Y-81760000D01*
X106925000Y-77460000D02*
X106925000Y-80360000D01*
X106325000Y-77460000D02*
X106925000Y-77460000D01*
X106425000Y-94650000D02*
X107225000Y-93250000D01*
X106825000Y-92750000D02*
X106125000Y-92750000D01*
X106825000Y-93250000D02*
X106825000Y-92750000D01*
X107225000Y-94650000D02*
X106825000Y-94650000D01*
X107225000Y-93250000D02*
X107225000Y-94650000D01*
X106425000Y-93250000D02*
X107225000Y-93250000D01*
X106425000Y-94650000D02*
X106425000Y-93250000D01*
X106825000Y-94650000D02*
X106425000Y-94650000D01*
X106825000Y-95250000D02*
X106825000Y-94650000D01*
X106125000Y-95250000D02*
X106825000Y-95250000D01*
X103625000Y-96670000D02*
X108825000Y-96670000D01*
X108825000Y-96670000D02*
X108825000Y-76070000D01*
X108825000Y-76070000D02*
X103625000Y-76070000D01*
X103625000Y-76070000D02*
X103625000Y-96670000D01*
%TO.C,K9*%
X95200000Y-96840000D02*
X95200000Y-95350000D01*
X97050000Y-96840000D02*
X95200000Y-96840000D01*
X98670000Y-85160000D02*
X98070000Y-85160000D01*
X98670000Y-81960000D02*
X98670000Y-85160000D01*
X98670000Y-80360000D02*
X99270000Y-81760000D01*
X98670000Y-77460000D02*
X98670000Y-80360000D01*
X98070000Y-77460000D02*
X98670000Y-77460000D01*
X98170000Y-94650000D02*
X98970000Y-93250000D01*
X98570000Y-92750000D02*
X97870000Y-92750000D01*
X98570000Y-93250000D02*
X98570000Y-92750000D01*
X98970000Y-94650000D02*
X98570000Y-94650000D01*
X98970000Y-93250000D02*
X98970000Y-94650000D01*
X98170000Y-93250000D02*
X98970000Y-93250000D01*
X98170000Y-94650000D02*
X98170000Y-93250000D01*
X98570000Y-94650000D02*
X98170000Y-94650000D01*
X98570000Y-95250000D02*
X98570000Y-94650000D01*
X97870000Y-95250000D02*
X98570000Y-95250000D01*
X95370000Y-96670000D02*
X100570000Y-96670000D01*
X100570000Y-96670000D02*
X100570000Y-76070000D01*
X100570000Y-76070000D02*
X95370000Y-76070000D01*
X95370000Y-76070000D02*
X95370000Y-96670000D01*
%TO.C,K8*%
X86945000Y-122240000D02*
X86945000Y-120750000D01*
X88795000Y-122240000D02*
X86945000Y-122240000D01*
X90415000Y-110560000D02*
X89815000Y-110560000D01*
X90415000Y-107360000D02*
X90415000Y-110560000D01*
X90415000Y-105760000D02*
X91015000Y-107160000D01*
X90415000Y-102860000D02*
X90415000Y-105760000D01*
X89815000Y-102860000D02*
X90415000Y-102860000D01*
X89915000Y-120050000D02*
X90715000Y-118650000D01*
X90315000Y-118150000D02*
X89615000Y-118150000D01*
X90315000Y-118650000D02*
X90315000Y-118150000D01*
X90715000Y-120050000D02*
X90315000Y-120050000D01*
X90715000Y-118650000D02*
X90715000Y-120050000D01*
X89915000Y-118650000D02*
X90715000Y-118650000D01*
X89915000Y-120050000D02*
X89915000Y-118650000D01*
X90315000Y-120050000D02*
X89915000Y-120050000D01*
X90315000Y-120650000D02*
X90315000Y-120050000D01*
X89615000Y-120650000D02*
X90315000Y-120650000D01*
X87115000Y-122070000D02*
X92315000Y-122070000D01*
X92315000Y-122070000D02*
X92315000Y-101470000D01*
X92315000Y-101470000D02*
X87115000Y-101470000D01*
X87115000Y-101470000D02*
X87115000Y-122070000D01*
%TO.C,K7*%
X78690000Y-122240000D02*
X78690000Y-120750000D01*
X80540000Y-122240000D02*
X78690000Y-122240000D01*
X82160000Y-110560000D02*
X81560000Y-110560000D01*
X82160000Y-107360000D02*
X82160000Y-110560000D01*
X82160000Y-105760000D02*
X82760000Y-107160000D01*
X82160000Y-102860000D02*
X82160000Y-105760000D01*
X81560000Y-102860000D02*
X82160000Y-102860000D01*
X81660000Y-120050000D02*
X82460000Y-118650000D01*
X82060000Y-118150000D02*
X81360000Y-118150000D01*
X82060000Y-118650000D02*
X82060000Y-118150000D01*
X82460000Y-120050000D02*
X82060000Y-120050000D01*
X82460000Y-118650000D02*
X82460000Y-120050000D01*
X81660000Y-118650000D02*
X82460000Y-118650000D01*
X81660000Y-120050000D02*
X81660000Y-118650000D01*
X82060000Y-120050000D02*
X81660000Y-120050000D01*
X82060000Y-120650000D02*
X82060000Y-120050000D01*
X81360000Y-120650000D02*
X82060000Y-120650000D01*
X78860000Y-122070000D02*
X84060000Y-122070000D01*
X84060000Y-122070000D02*
X84060000Y-101470000D01*
X84060000Y-101470000D02*
X78860000Y-101470000D01*
X78860000Y-101470000D02*
X78860000Y-122070000D01*
%TO.C,K6*%
X86945000Y-96840000D02*
X86945000Y-95350000D01*
X88795000Y-96840000D02*
X86945000Y-96840000D01*
X90415000Y-85160000D02*
X89815000Y-85160000D01*
X90415000Y-81960000D02*
X90415000Y-85160000D01*
X90415000Y-80360000D02*
X91015000Y-81760000D01*
X90415000Y-77460000D02*
X90415000Y-80360000D01*
X89815000Y-77460000D02*
X90415000Y-77460000D01*
X89915000Y-94650000D02*
X90715000Y-93250000D01*
X90315000Y-92750000D02*
X89615000Y-92750000D01*
X90315000Y-93250000D02*
X90315000Y-92750000D01*
X90715000Y-94650000D02*
X90315000Y-94650000D01*
X90715000Y-93250000D02*
X90715000Y-94650000D01*
X89915000Y-93250000D02*
X90715000Y-93250000D01*
X89915000Y-94650000D02*
X89915000Y-93250000D01*
X90315000Y-94650000D02*
X89915000Y-94650000D01*
X90315000Y-95250000D02*
X90315000Y-94650000D01*
X89615000Y-95250000D02*
X90315000Y-95250000D01*
X87115000Y-96670000D02*
X92315000Y-96670000D01*
X92315000Y-96670000D02*
X92315000Y-76070000D01*
X92315000Y-76070000D02*
X87115000Y-76070000D01*
X87115000Y-76070000D02*
X87115000Y-96670000D01*
%TO.C,K5*%
X78690000Y-96840000D02*
X78690000Y-95350000D01*
X80540000Y-96840000D02*
X78690000Y-96840000D01*
X82160000Y-85160000D02*
X81560000Y-85160000D01*
X82160000Y-81960000D02*
X82160000Y-85160000D01*
X82160000Y-80360000D02*
X82760000Y-81760000D01*
X82160000Y-77460000D02*
X82160000Y-80360000D01*
X81560000Y-77460000D02*
X82160000Y-77460000D01*
X81660000Y-94650000D02*
X82460000Y-93250000D01*
X82060000Y-92750000D02*
X81360000Y-92750000D01*
X82060000Y-93250000D02*
X82060000Y-92750000D01*
X82460000Y-94650000D02*
X82060000Y-94650000D01*
X82460000Y-93250000D02*
X82460000Y-94650000D01*
X81660000Y-93250000D02*
X82460000Y-93250000D01*
X81660000Y-94650000D02*
X81660000Y-93250000D01*
X82060000Y-94650000D02*
X81660000Y-94650000D01*
X82060000Y-95250000D02*
X82060000Y-94650000D01*
X81360000Y-95250000D02*
X82060000Y-95250000D01*
X78860000Y-96670000D02*
X84060000Y-96670000D01*
X84060000Y-96670000D02*
X84060000Y-76070000D01*
X84060000Y-76070000D02*
X78860000Y-76070000D01*
X78860000Y-76070000D02*
X78860000Y-96670000D01*
%TO.C,K4*%
X70435000Y-122240000D02*
X70435000Y-120750000D01*
X72285000Y-122240000D02*
X70435000Y-122240000D01*
X73905000Y-110560000D02*
X73305000Y-110560000D01*
X73905000Y-107360000D02*
X73905000Y-110560000D01*
X73905000Y-105760000D02*
X74505000Y-107160000D01*
X73905000Y-102860000D02*
X73905000Y-105760000D01*
X73305000Y-102860000D02*
X73905000Y-102860000D01*
X73405000Y-120050000D02*
X74205000Y-118650000D01*
X73805000Y-118150000D02*
X73105000Y-118150000D01*
X73805000Y-118650000D02*
X73805000Y-118150000D01*
X74205000Y-120050000D02*
X73805000Y-120050000D01*
X74205000Y-118650000D02*
X74205000Y-120050000D01*
X73405000Y-118650000D02*
X74205000Y-118650000D01*
X73405000Y-120050000D02*
X73405000Y-118650000D01*
X73805000Y-120050000D02*
X73405000Y-120050000D01*
X73805000Y-120650000D02*
X73805000Y-120050000D01*
X73105000Y-120650000D02*
X73805000Y-120650000D01*
X70605000Y-122070000D02*
X75805000Y-122070000D01*
X75805000Y-122070000D02*
X75805000Y-101470000D01*
X75805000Y-101470000D02*
X70605000Y-101470000D01*
X70605000Y-101470000D02*
X70605000Y-122070000D01*
%TO.C,K3*%
X62180000Y-122240000D02*
X62180000Y-120750000D01*
X64030000Y-122240000D02*
X62180000Y-122240000D01*
X65650000Y-110560000D02*
X65050000Y-110560000D01*
X65650000Y-107360000D02*
X65650000Y-110560000D01*
X65650000Y-105760000D02*
X66250000Y-107160000D01*
X65650000Y-102860000D02*
X65650000Y-105760000D01*
X65050000Y-102860000D02*
X65650000Y-102860000D01*
X65150000Y-120050000D02*
X65950000Y-118650000D01*
X65550000Y-118150000D02*
X64850000Y-118150000D01*
X65550000Y-118650000D02*
X65550000Y-118150000D01*
X65950000Y-120050000D02*
X65550000Y-120050000D01*
X65950000Y-118650000D02*
X65950000Y-120050000D01*
X65150000Y-118650000D02*
X65950000Y-118650000D01*
X65150000Y-120050000D02*
X65150000Y-118650000D01*
X65550000Y-120050000D02*
X65150000Y-120050000D01*
X65550000Y-120650000D02*
X65550000Y-120050000D01*
X64850000Y-120650000D02*
X65550000Y-120650000D01*
X62350000Y-122070000D02*
X67550000Y-122070000D01*
X67550000Y-122070000D02*
X67550000Y-101470000D01*
X67550000Y-101470000D02*
X62350000Y-101470000D01*
X62350000Y-101470000D02*
X62350000Y-122070000D01*
%TO.C,K2*%
X70435000Y-96840000D02*
X70435000Y-95350000D01*
X72285000Y-96840000D02*
X70435000Y-96840000D01*
X73905000Y-85160000D02*
X73305000Y-85160000D01*
X73905000Y-81960000D02*
X73905000Y-85160000D01*
X73905000Y-80360000D02*
X74505000Y-81760000D01*
X73905000Y-77460000D02*
X73905000Y-80360000D01*
X73305000Y-77460000D02*
X73905000Y-77460000D01*
X73405000Y-94650000D02*
X74205000Y-93250000D01*
X73805000Y-92750000D02*
X73105000Y-92750000D01*
X73805000Y-93250000D02*
X73805000Y-92750000D01*
X74205000Y-94650000D02*
X73805000Y-94650000D01*
X74205000Y-93250000D02*
X74205000Y-94650000D01*
X73405000Y-93250000D02*
X74205000Y-93250000D01*
X73405000Y-94650000D02*
X73405000Y-93250000D01*
X73805000Y-94650000D02*
X73405000Y-94650000D01*
X73805000Y-95250000D02*
X73805000Y-94650000D01*
X73105000Y-95250000D02*
X73805000Y-95250000D01*
X70605000Y-96670000D02*
X75805000Y-96670000D01*
X75805000Y-96670000D02*
X75805000Y-76070000D01*
X75805000Y-76070000D02*
X70605000Y-76070000D01*
X70605000Y-76070000D02*
X70605000Y-96670000D01*
%TO.C,K1*%
X62180000Y-96840000D02*
X62180000Y-95350000D01*
X64030000Y-96840000D02*
X62180000Y-96840000D01*
X65650000Y-85160000D02*
X65050000Y-85160000D01*
X65650000Y-81960000D02*
X65650000Y-85160000D01*
X65650000Y-80360000D02*
X66250000Y-81760000D01*
X65650000Y-77460000D02*
X65650000Y-80360000D01*
X65050000Y-77460000D02*
X65650000Y-77460000D01*
X65150000Y-94650000D02*
X65950000Y-93250000D01*
X65550000Y-92750000D02*
X64850000Y-92750000D01*
X65550000Y-93250000D02*
X65550000Y-92750000D01*
X65950000Y-94650000D02*
X65550000Y-94650000D01*
X65950000Y-93250000D02*
X65950000Y-94650000D01*
X65150000Y-93250000D02*
X65950000Y-93250000D01*
X65150000Y-94650000D02*
X65150000Y-93250000D01*
X65550000Y-94650000D02*
X65150000Y-94650000D01*
X65550000Y-95250000D02*
X65550000Y-94650000D01*
X64850000Y-95250000D02*
X65550000Y-95250000D01*
X62350000Y-96670000D02*
X67550000Y-96670000D01*
X67550000Y-96670000D02*
X67550000Y-76070000D01*
X67550000Y-76070000D02*
X62350000Y-76070000D01*
X62350000Y-76070000D02*
X62350000Y-96670000D01*
%TO.C,R32*%
X136273000Y-112947267D02*
X136273000Y-112604733D01*
X135253000Y-112947267D02*
X135253000Y-112604733D01*
%TO.C,R31*%
X141353000Y-112947267D02*
X141353000Y-112604733D01*
X140333000Y-112947267D02*
X140333000Y-112604733D01*
%TO.C,R30*%
X146306000Y-112947267D02*
X146306000Y-112604733D01*
X145286000Y-112947267D02*
X145286000Y-112604733D01*
%TO.C,R29*%
X151386000Y-112947267D02*
X151386000Y-112604733D01*
X150366000Y-112947267D02*
X150366000Y-112604733D01*
%TO.C,R28*%
X156466000Y-112947267D02*
X156466000Y-112604733D01*
X155446000Y-112947267D02*
X155446000Y-112604733D01*
%TO.C,R27*%
X161546000Y-112947267D02*
X161546000Y-112604733D01*
X160526000Y-112947267D02*
X160526000Y-112604733D01*
%TO.C,R26*%
X166626000Y-112947267D02*
X166626000Y-112604733D01*
X165606000Y-112947267D02*
X165606000Y-112604733D01*
%TO.C,R25*%
X171706000Y-112947267D02*
X171706000Y-112604733D01*
X170686000Y-112947267D02*
X170686000Y-112604733D01*
%TO.C,R24*%
X133094000Y-87712733D02*
X133094000Y-88055267D01*
X134114000Y-87712733D02*
X134114000Y-88055267D01*
%TO.C,R23*%
X138174000Y-87712733D02*
X138174000Y-88055267D01*
X139194000Y-87712733D02*
X139194000Y-88055267D01*
%TO.C,R22*%
X143254000Y-87712733D02*
X143254000Y-88055267D01*
X144274000Y-87712733D02*
X144274000Y-88055267D01*
%TO.C,R21*%
X148334000Y-87712733D02*
X148334000Y-88055267D01*
X149354000Y-87712733D02*
X149354000Y-88055267D01*
%TO.C,R20*%
X154434000Y-87712733D02*
X154434000Y-88055267D01*
X153414000Y-87712733D02*
X153414000Y-88055267D01*
%TO.C,R19*%
X158494000Y-87712733D02*
X158494000Y-88055267D01*
X159514000Y-87712733D02*
X159514000Y-88055267D01*
%TO.C,R18*%
X163574000Y-87712733D02*
X163574000Y-88055267D01*
X164594000Y-87712733D02*
X164594000Y-88055267D01*
%TO.C,R17*%
X168654000Y-87712733D02*
X168654000Y-88055267D01*
X169674000Y-87712733D02*
X169674000Y-88055267D01*
%TO.C,R16*%
X168654000Y-112604733D02*
X168654000Y-112947267D01*
X169674000Y-112604733D02*
X169674000Y-112947267D01*
%TO.C,R15*%
X170686000Y-88055267D02*
X170686000Y-87712733D01*
X171706000Y-88055267D02*
X171706000Y-87712733D01*
%TO.C,R14*%
X163574000Y-112604733D02*
X163574000Y-112947267D01*
X164594000Y-112604733D02*
X164594000Y-112947267D01*
%TO.C,R13*%
X165606000Y-88055267D02*
X165606000Y-87712733D01*
X166626000Y-88055267D02*
X166626000Y-87712733D01*
%TO.C,R12*%
X158494000Y-112604733D02*
X158494000Y-112947267D01*
X159514000Y-112604733D02*
X159514000Y-112947267D01*
%TO.C,R11*%
X160526000Y-88055267D02*
X160526000Y-87712733D01*
X161546000Y-88055267D02*
X161546000Y-87712733D01*
%TO.C,R10*%
X153414000Y-112604733D02*
X153414000Y-112947267D01*
X154434000Y-112604733D02*
X154434000Y-112947267D01*
%TO.C,R9*%
X156466000Y-88055267D02*
X156466000Y-87712733D01*
X155446000Y-88055267D02*
X155446000Y-87712733D01*
%TO.C,R8*%
X148334000Y-112604733D02*
X148334000Y-112947267D01*
X149354000Y-112604733D02*
X149354000Y-112947267D01*
%TO.C,R7*%
X150366000Y-88055267D02*
X150366000Y-87712733D01*
X151386000Y-88055267D02*
X151386000Y-87712733D01*
%TO.C,R6*%
X143254000Y-112604733D02*
X143254000Y-112947267D01*
X144274000Y-112604733D02*
X144274000Y-112947267D01*
%TO.C,R5*%
X145286000Y-88055267D02*
X145286000Y-87712733D01*
X146306000Y-88055267D02*
X146306000Y-87712733D01*
%TO.C,R4*%
X138301000Y-112604733D02*
X138301000Y-112947267D01*
X139321000Y-112604733D02*
X139321000Y-112947267D01*
%TO.C,R3*%
X140206000Y-88055267D02*
X140206000Y-87712733D01*
X141226000Y-88055267D02*
X141226000Y-87712733D01*
%TO.C,R2*%
X133221000Y-112604733D02*
X133221000Y-112947267D01*
X134241000Y-112604733D02*
X134241000Y-112947267D01*
%TO.C,R1*%
X135126000Y-88055267D02*
X135126000Y-87712733D01*
X136146000Y-88055267D02*
X136146000Y-87712733D01*
%TO.C,Q16*%
X133167000Y-117600000D02*
X133167000Y-116140000D01*
X136327000Y-117600000D02*
X136327000Y-115440000D01*
X136327000Y-117600000D02*
X135397000Y-117600000D01*
X133167000Y-117600000D02*
X134097000Y-117600000D01*
%TO.C,Q15*%
X153360000Y-117600000D02*
X153360000Y-116140000D01*
X156520000Y-117600000D02*
X156520000Y-115440000D01*
X156520000Y-117600000D02*
X155590000Y-117600000D01*
X153360000Y-117600000D02*
X154290000Y-117600000D01*
%TO.C,Q14*%
X136200000Y-83060000D02*
X136200000Y-84520000D01*
X133040000Y-83060000D02*
X133040000Y-85220000D01*
X133040000Y-83060000D02*
X133970000Y-83060000D01*
X136200000Y-83060000D02*
X135270000Y-83060000D01*
%TO.C,Q13*%
X156520000Y-83060000D02*
X155590000Y-83060000D01*
X153360000Y-83060000D02*
X154290000Y-83060000D01*
X153360000Y-83060000D02*
X153360000Y-85220000D01*
X156520000Y-83060000D02*
X156520000Y-84520000D01*
%TO.C,Q12*%
X138247000Y-117616000D02*
X138247000Y-116156000D01*
X141407000Y-117616000D02*
X141407000Y-115456000D01*
X141407000Y-117616000D02*
X140477000Y-117616000D01*
X138247000Y-117616000D02*
X139177000Y-117616000D01*
%TO.C,Q11*%
X158440000Y-117600000D02*
X158440000Y-116140000D01*
X161600000Y-117600000D02*
X161600000Y-115440000D01*
X161600000Y-117600000D02*
X160670000Y-117600000D01*
X158440000Y-117600000D02*
X159370000Y-117600000D01*
%TO.C,Q10*%
X141280000Y-83060000D02*
X141280000Y-84520000D01*
X138120000Y-83060000D02*
X138120000Y-85220000D01*
X138120000Y-83060000D02*
X139050000Y-83060000D01*
X141280000Y-83060000D02*
X140350000Y-83060000D01*
%TO.C,Q9*%
X161600000Y-83060000D02*
X161600000Y-84520000D01*
X158440000Y-83060000D02*
X158440000Y-85220000D01*
X158440000Y-83060000D02*
X159370000Y-83060000D01*
X161600000Y-83060000D02*
X160670000Y-83060000D01*
%TO.C,Q8*%
X143200000Y-117600000D02*
X143200000Y-116140000D01*
X146360000Y-117600000D02*
X146360000Y-115440000D01*
X146360000Y-117600000D02*
X145430000Y-117600000D01*
X143200000Y-117600000D02*
X144130000Y-117600000D01*
%TO.C,Q7*%
X163520000Y-117616000D02*
X163520000Y-116156000D01*
X166680000Y-117616000D02*
X166680000Y-115456000D01*
X166680000Y-117616000D02*
X165750000Y-117616000D01*
X163520000Y-117616000D02*
X164450000Y-117616000D01*
%TO.C,Q6*%
X146360000Y-83060000D02*
X146360000Y-84520000D01*
X143200000Y-83060000D02*
X143200000Y-85220000D01*
X143200000Y-83060000D02*
X144130000Y-83060000D01*
X146360000Y-83060000D02*
X145430000Y-83060000D01*
%TO.C,Q5*%
X166680000Y-83060000D02*
X166680000Y-84520000D01*
X163520000Y-83060000D02*
X163520000Y-85220000D01*
X163520000Y-83060000D02*
X164450000Y-83060000D01*
X166680000Y-83060000D02*
X165750000Y-83060000D01*
%TO.C,Q4*%
X148280000Y-117600000D02*
X148280000Y-116140000D01*
X151440000Y-117600000D02*
X151440000Y-115440000D01*
X151440000Y-117600000D02*
X150510000Y-117600000D01*
X148280000Y-117600000D02*
X149210000Y-117600000D01*
%TO.C,Q3*%
X168600000Y-117600000D02*
X168600000Y-116140000D01*
X171760000Y-117600000D02*
X171760000Y-115440000D01*
X171760000Y-117600000D02*
X170830000Y-117600000D01*
X168600000Y-117600000D02*
X169530000Y-117600000D01*
%TO.C,Q2*%
X151440000Y-83060000D02*
X151440000Y-84520000D01*
X148280000Y-83060000D02*
X148280000Y-85220000D01*
X148280000Y-83060000D02*
X149210000Y-83060000D01*
X151440000Y-83060000D02*
X150510000Y-83060000D01*
%TO.C,Q1*%
X171760000Y-83060000D02*
X171760000Y-84520000D01*
X168600000Y-83060000D02*
X168600000Y-85220000D01*
X168600000Y-83060000D02*
X169530000Y-83060000D01*
X171760000Y-83060000D02*
X170830000Y-83060000D01*
%TO.C,A1*%
X129410000Y-91310000D02*
X129410000Y-109350000D01*
X172850000Y-91310000D02*
X129410000Y-91310000D01*
X172850000Y-109350000D02*
X172850000Y-91310000D01*
X170180000Y-106680000D02*
X170180000Y-109350000D01*
X134620000Y-106680000D02*
X170180000Y-106680000D01*
X134620000Y-106680000D02*
X134620000Y-109350000D01*
X170180000Y-93980000D02*
X170180000Y-91310000D01*
X132080000Y-93980000D02*
X170180000Y-93980000D01*
X132080000Y-93980000D02*
X132080000Y-91310000D01*
X129410000Y-109350000D02*
X132080000Y-109350000D01*
X134620000Y-109350000D02*
X172850000Y-109350000D01*
X132080000Y-106680000D02*
X132080000Y-109350000D01*
X134620000Y-106680000D02*
X132080000Y-106680000D01*
%TO.C,D16*%
D11*
X119197380Y-116784285D02*
X118197380Y-116784285D01*
X118197380Y-116546190D01*
X118245000Y-116403333D01*
X118340238Y-116308095D01*
X118435476Y-116260476D01*
X118625952Y-116212857D01*
X118768809Y-116212857D01*
X118959285Y-116260476D01*
X119054523Y-116308095D01*
X119149761Y-116403333D01*
X119197380Y-116546190D01*
X119197380Y-116784285D01*
X119197380Y-115260476D02*
X119197380Y-115831904D01*
X119197380Y-115546190D02*
X118197380Y-115546190D01*
X118340238Y-115641428D01*
X118435476Y-115736666D01*
X118483095Y-115831904D01*
X118197380Y-114403333D02*
X118197380Y-114593809D01*
X118245000Y-114689047D01*
X118292619Y-114736666D01*
X118435476Y-114831904D01*
X118625952Y-114879523D01*
X119006904Y-114879523D01*
X119102142Y-114831904D01*
X119149761Y-114784285D01*
X119197380Y-114689047D01*
X119197380Y-114498571D01*
X119149761Y-114403333D01*
X119102142Y-114355714D01*
X119006904Y-114308095D01*
X118768809Y-114308095D01*
X118673571Y-114355714D01*
X118625952Y-114403333D01*
X118578333Y-114498571D01*
X118578333Y-114689047D01*
X118625952Y-114784285D01*
X118673571Y-114831904D01*
X118768809Y-114879523D01*
%TO.C,D15*%
X110942380Y-116784285D02*
X109942380Y-116784285D01*
X109942380Y-116546190D01*
X109990000Y-116403333D01*
X110085238Y-116308095D01*
X110180476Y-116260476D01*
X110370952Y-116212857D01*
X110513809Y-116212857D01*
X110704285Y-116260476D01*
X110799523Y-116308095D01*
X110894761Y-116403333D01*
X110942380Y-116546190D01*
X110942380Y-116784285D01*
X110942380Y-115260476D02*
X110942380Y-115831904D01*
X110942380Y-115546190D02*
X109942380Y-115546190D01*
X110085238Y-115641428D01*
X110180476Y-115736666D01*
X110228095Y-115831904D01*
X109942380Y-114355714D02*
X109942380Y-114831904D01*
X110418571Y-114879523D01*
X110370952Y-114831904D01*
X110323333Y-114736666D01*
X110323333Y-114498571D01*
X110370952Y-114403333D01*
X110418571Y-114355714D01*
X110513809Y-114308095D01*
X110751904Y-114308095D01*
X110847142Y-114355714D01*
X110894761Y-114403333D01*
X110942380Y-114498571D01*
X110942380Y-114736666D01*
X110894761Y-114831904D01*
X110847142Y-114879523D01*
%TO.C,D14*%
X119197380Y-91384285D02*
X118197380Y-91384285D01*
X118197380Y-91146190D01*
X118245000Y-91003333D01*
X118340238Y-90908095D01*
X118435476Y-90860476D01*
X118625952Y-90812857D01*
X118768809Y-90812857D01*
X118959285Y-90860476D01*
X119054523Y-90908095D01*
X119149761Y-91003333D01*
X119197380Y-91146190D01*
X119197380Y-91384285D01*
X119197380Y-89860476D02*
X119197380Y-90431904D01*
X119197380Y-90146190D02*
X118197380Y-90146190D01*
X118340238Y-90241428D01*
X118435476Y-90336666D01*
X118483095Y-90431904D01*
X118530714Y-89003333D02*
X119197380Y-89003333D01*
X118149761Y-89241428D02*
X118864047Y-89479523D01*
X118864047Y-88860476D01*
%TO.C,D13*%
X110942380Y-91384285D02*
X109942380Y-91384285D01*
X109942380Y-91146190D01*
X109990000Y-91003333D01*
X110085238Y-90908095D01*
X110180476Y-90860476D01*
X110370952Y-90812857D01*
X110513809Y-90812857D01*
X110704285Y-90860476D01*
X110799523Y-90908095D01*
X110894761Y-91003333D01*
X110942380Y-91146190D01*
X110942380Y-91384285D01*
X110942380Y-89860476D02*
X110942380Y-90431904D01*
X110942380Y-90146190D02*
X109942380Y-90146190D01*
X110085238Y-90241428D01*
X110180476Y-90336666D01*
X110228095Y-90431904D01*
X109942380Y-89527142D02*
X109942380Y-88908095D01*
X110323333Y-89241428D01*
X110323333Y-89098571D01*
X110370952Y-89003333D01*
X110418571Y-88955714D01*
X110513809Y-88908095D01*
X110751904Y-88908095D01*
X110847142Y-88955714D01*
X110894761Y-89003333D01*
X110942380Y-89098571D01*
X110942380Y-89384285D01*
X110894761Y-89479523D01*
X110847142Y-89527142D01*
%TO.C,D12*%
X102687380Y-116784285D02*
X101687380Y-116784285D01*
X101687380Y-116546190D01*
X101735000Y-116403333D01*
X101830238Y-116308095D01*
X101925476Y-116260476D01*
X102115952Y-116212857D01*
X102258809Y-116212857D01*
X102449285Y-116260476D01*
X102544523Y-116308095D01*
X102639761Y-116403333D01*
X102687380Y-116546190D01*
X102687380Y-116784285D01*
X102687380Y-115260476D02*
X102687380Y-115831904D01*
X102687380Y-115546190D02*
X101687380Y-115546190D01*
X101830238Y-115641428D01*
X101925476Y-115736666D01*
X101973095Y-115831904D01*
X101782619Y-114879523D02*
X101735000Y-114831904D01*
X101687380Y-114736666D01*
X101687380Y-114498571D01*
X101735000Y-114403333D01*
X101782619Y-114355714D01*
X101877857Y-114308095D01*
X101973095Y-114308095D01*
X102115952Y-114355714D01*
X102687380Y-114927142D01*
X102687380Y-114308095D01*
%TO.C,D11*%
X94432380Y-116784285D02*
X93432380Y-116784285D01*
X93432380Y-116546190D01*
X93480000Y-116403333D01*
X93575238Y-116308095D01*
X93670476Y-116260476D01*
X93860952Y-116212857D01*
X94003809Y-116212857D01*
X94194285Y-116260476D01*
X94289523Y-116308095D01*
X94384761Y-116403333D01*
X94432380Y-116546190D01*
X94432380Y-116784285D01*
X94432380Y-115260476D02*
X94432380Y-115831904D01*
X94432380Y-115546190D02*
X93432380Y-115546190D01*
X93575238Y-115641428D01*
X93670476Y-115736666D01*
X93718095Y-115831904D01*
X94432380Y-114308095D02*
X94432380Y-114879523D01*
X94432380Y-114593809D02*
X93432380Y-114593809D01*
X93575238Y-114689047D01*
X93670476Y-114784285D01*
X93718095Y-114879523D01*
%TO.C,D10*%
X102687380Y-91384285D02*
X101687380Y-91384285D01*
X101687380Y-91146190D01*
X101735000Y-91003333D01*
X101830238Y-90908095D01*
X101925476Y-90860476D01*
X102115952Y-90812857D01*
X102258809Y-90812857D01*
X102449285Y-90860476D01*
X102544523Y-90908095D01*
X102639761Y-91003333D01*
X102687380Y-91146190D01*
X102687380Y-91384285D01*
X102687380Y-89860476D02*
X102687380Y-90431904D01*
X102687380Y-90146190D02*
X101687380Y-90146190D01*
X101830238Y-90241428D01*
X101925476Y-90336666D01*
X101973095Y-90431904D01*
X101687380Y-89241428D02*
X101687380Y-89146190D01*
X101735000Y-89050952D01*
X101782619Y-89003333D01*
X101877857Y-88955714D01*
X102068333Y-88908095D01*
X102306428Y-88908095D01*
X102496904Y-88955714D01*
X102592142Y-89003333D01*
X102639761Y-89050952D01*
X102687380Y-89146190D01*
X102687380Y-89241428D01*
X102639761Y-89336666D01*
X102592142Y-89384285D01*
X102496904Y-89431904D01*
X102306428Y-89479523D01*
X102068333Y-89479523D01*
X101877857Y-89431904D01*
X101782619Y-89384285D01*
X101735000Y-89336666D01*
X101687380Y-89241428D01*
%TO.C,D9*%
X94432380Y-91543095D02*
X93432380Y-91543095D01*
X93432380Y-91305000D01*
X93480000Y-91162142D01*
X93575238Y-91066904D01*
X93670476Y-91019285D01*
X93860952Y-90971666D01*
X94003809Y-90971666D01*
X94194285Y-91019285D01*
X94289523Y-91066904D01*
X94384761Y-91162142D01*
X94432380Y-91305000D01*
X94432380Y-91543095D01*
X94432380Y-90495476D02*
X94432380Y-90305000D01*
X94384761Y-90209761D01*
X94337142Y-90162142D01*
X94194285Y-90066904D01*
X94003809Y-90019285D01*
X93622857Y-90019285D01*
X93527619Y-90066904D01*
X93480000Y-90114523D01*
X93432380Y-90209761D01*
X93432380Y-90400238D01*
X93480000Y-90495476D01*
X93527619Y-90543095D01*
X93622857Y-90590714D01*
X93860952Y-90590714D01*
X93956190Y-90543095D01*
X94003809Y-90495476D01*
X94051428Y-90400238D01*
X94051428Y-90209761D01*
X94003809Y-90114523D01*
X93956190Y-90066904D01*
X93860952Y-90019285D01*
%TO.C,D8*%
X86177380Y-116943095D02*
X85177380Y-116943095D01*
X85177380Y-116705000D01*
X85225000Y-116562142D01*
X85320238Y-116466904D01*
X85415476Y-116419285D01*
X85605952Y-116371666D01*
X85748809Y-116371666D01*
X85939285Y-116419285D01*
X86034523Y-116466904D01*
X86129761Y-116562142D01*
X86177380Y-116705000D01*
X86177380Y-116943095D01*
X85605952Y-115800238D02*
X85558333Y-115895476D01*
X85510714Y-115943095D01*
X85415476Y-115990714D01*
X85367857Y-115990714D01*
X85272619Y-115943095D01*
X85225000Y-115895476D01*
X85177380Y-115800238D01*
X85177380Y-115609761D01*
X85225000Y-115514523D01*
X85272619Y-115466904D01*
X85367857Y-115419285D01*
X85415476Y-115419285D01*
X85510714Y-115466904D01*
X85558333Y-115514523D01*
X85605952Y-115609761D01*
X85605952Y-115800238D01*
X85653571Y-115895476D01*
X85701190Y-115943095D01*
X85796428Y-115990714D01*
X85986904Y-115990714D01*
X86082142Y-115943095D01*
X86129761Y-115895476D01*
X86177380Y-115800238D01*
X86177380Y-115609761D01*
X86129761Y-115514523D01*
X86082142Y-115466904D01*
X85986904Y-115419285D01*
X85796428Y-115419285D01*
X85701190Y-115466904D01*
X85653571Y-115514523D01*
X85605952Y-115609761D01*
%TO.C,D7*%
X77922380Y-116943095D02*
X76922380Y-116943095D01*
X76922380Y-116705000D01*
X76970000Y-116562142D01*
X77065238Y-116466904D01*
X77160476Y-116419285D01*
X77350952Y-116371666D01*
X77493809Y-116371666D01*
X77684285Y-116419285D01*
X77779523Y-116466904D01*
X77874761Y-116562142D01*
X77922380Y-116705000D01*
X77922380Y-116943095D01*
X76922380Y-116038333D02*
X76922380Y-115371666D01*
X77922380Y-115800238D01*
%TO.C,D6*%
X86177380Y-91543095D02*
X85177380Y-91543095D01*
X85177380Y-91305000D01*
X85225000Y-91162142D01*
X85320238Y-91066904D01*
X85415476Y-91019285D01*
X85605952Y-90971666D01*
X85748809Y-90971666D01*
X85939285Y-91019285D01*
X86034523Y-91066904D01*
X86129761Y-91162142D01*
X86177380Y-91305000D01*
X86177380Y-91543095D01*
X85177380Y-90114523D02*
X85177380Y-90305000D01*
X85225000Y-90400238D01*
X85272619Y-90447857D01*
X85415476Y-90543095D01*
X85605952Y-90590714D01*
X85986904Y-90590714D01*
X86082142Y-90543095D01*
X86129761Y-90495476D01*
X86177380Y-90400238D01*
X86177380Y-90209761D01*
X86129761Y-90114523D01*
X86082142Y-90066904D01*
X85986904Y-90019285D01*
X85748809Y-90019285D01*
X85653571Y-90066904D01*
X85605952Y-90114523D01*
X85558333Y-90209761D01*
X85558333Y-90400238D01*
X85605952Y-90495476D01*
X85653571Y-90543095D01*
X85748809Y-90590714D01*
%TO.C,D5*%
X77922380Y-91543095D02*
X76922380Y-91543095D01*
X76922380Y-91305000D01*
X76970000Y-91162142D01*
X77065238Y-91066904D01*
X77160476Y-91019285D01*
X77350952Y-90971666D01*
X77493809Y-90971666D01*
X77684285Y-91019285D01*
X77779523Y-91066904D01*
X77874761Y-91162142D01*
X77922380Y-91305000D01*
X77922380Y-91543095D01*
X76922380Y-90066904D02*
X76922380Y-90543095D01*
X77398571Y-90590714D01*
X77350952Y-90543095D01*
X77303333Y-90447857D01*
X77303333Y-90209761D01*
X77350952Y-90114523D01*
X77398571Y-90066904D01*
X77493809Y-90019285D01*
X77731904Y-90019285D01*
X77827142Y-90066904D01*
X77874761Y-90114523D01*
X77922380Y-90209761D01*
X77922380Y-90447857D01*
X77874761Y-90543095D01*
X77827142Y-90590714D01*
%TO.C,D4*%
X69667380Y-116943095D02*
X68667380Y-116943095D01*
X68667380Y-116705000D01*
X68715000Y-116562142D01*
X68810238Y-116466904D01*
X68905476Y-116419285D01*
X69095952Y-116371666D01*
X69238809Y-116371666D01*
X69429285Y-116419285D01*
X69524523Y-116466904D01*
X69619761Y-116562142D01*
X69667380Y-116705000D01*
X69667380Y-116943095D01*
X69000714Y-115514523D02*
X69667380Y-115514523D01*
X68619761Y-115752619D02*
X69334047Y-115990714D01*
X69334047Y-115371666D01*
%TO.C,D3*%
X61412380Y-116943095D02*
X60412380Y-116943095D01*
X60412380Y-116705000D01*
X60460000Y-116562142D01*
X60555238Y-116466904D01*
X60650476Y-116419285D01*
X60840952Y-116371666D01*
X60983809Y-116371666D01*
X61174285Y-116419285D01*
X61269523Y-116466904D01*
X61364761Y-116562142D01*
X61412380Y-116705000D01*
X61412380Y-116943095D01*
X60412380Y-116038333D02*
X60412380Y-115419285D01*
X60793333Y-115752619D01*
X60793333Y-115609761D01*
X60840952Y-115514523D01*
X60888571Y-115466904D01*
X60983809Y-115419285D01*
X61221904Y-115419285D01*
X61317142Y-115466904D01*
X61364761Y-115514523D01*
X61412380Y-115609761D01*
X61412380Y-115895476D01*
X61364761Y-115990714D01*
X61317142Y-116038333D01*
%TO.C,D2*%
X69667380Y-91543095D02*
X68667380Y-91543095D01*
X68667380Y-91305000D01*
X68715000Y-91162142D01*
X68810238Y-91066904D01*
X68905476Y-91019285D01*
X69095952Y-90971666D01*
X69238809Y-90971666D01*
X69429285Y-91019285D01*
X69524523Y-91066904D01*
X69619761Y-91162142D01*
X69667380Y-91305000D01*
X69667380Y-91543095D01*
X68762619Y-90590714D02*
X68715000Y-90543095D01*
X68667380Y-90447857D01*
X68667380Y-90209761D01*
X68715000Y-90114523D01*
X68762619Y-90066904D01*
X68857857Y-90019285D01*
X68953095Y-90019285D01*
X69095952Y-90066904D01*
X69667380Y-90638333D01*
X69667380Y-90019285D01*
%TO.C,D1*%
X61412380Y-91543095D02*
X60412380Y-91543095D01*
X60412380Y-91305000D01*
X60460000Y-91162142D01*
X60555238Y-91066904D01*
X60650476Y-91019285D01*
X60840952Y-90971666D01*
X60983809Y-90971666D01*
X61174285Y-91019285D01*
X61269523Y-91066904D01*
X61364761Y-91162142D01*
X61412380Y-91305000D01*
X61412380Y-91543095D01*
X61412380Y-90019285D02*
X61412380Y-90590714D01*
X61412380Y-90305000D02*
X60412380Y-90305000D01*
X60555238Y-90400238D01*
X60650476Y-90495476D01*
X60698095Y-90590714D01*
%TO.C,J8*%
X152066666Y-122452380D02*
X152066666Y-123166666D01*
X152019047Y-123309523D01*
X151923809Y-123404761D01*
X151780952Y-123452380D01*
X151685714Y-123452380D01*
X152685714Y-122880952D02*
X152590476Y-122833333D01*
X152542857Y-122785714D01*
X152495238Y-122690476D01*
X152495238Y-122642857D01*
X152542857Y-122547619D01*
X152590476Y-122500000D01*
X152685714Y-122452380D01*
X152876190Y-122452380D01*
X152971428Y-122500000D01*
X153019047Y-122547619D01*
X153066666Y-122642857D01*
X153066666Y-122690476D01*
X153019047Y-122785714D01*
X152971428Y-122833333D01*
X152876190Y-122880952D01*
X152685714Y-122880952D01*
X152590476Y-122928571D01*
X152542857Y-122976190D01*
X152495238Y-123071428D01*
X152495238Y-123261904D01*
X152542857Y-123357142D01*
X152590476Y-123404761D01*
X152685714Y-123452380D01*
X152876190Y-123452380D01*
X152971428Y-123404761D01*
X153019047Y-123357142D01*
X153066666Y-123261904D01*
X153066666Y-123071428D01*
X153019047Y-122976190D01*
X152971428Y-122928571D01*
X152876190Y-122880952D01*
%TO.C,J7*%
X126666666Y-122452380D02*
X126666666Y-123166666D01*
X126619047Y-123309523D01*
X126523809Y-123404761D01*
X126380952Y-123452380D01*
X126285714Y-123452380D01*
X127047619Y-122452380D02*
X127714285Y-122452380D01*
X127285714Y-123452380D01*
%TO.C,J6*%
X101266666Y-122452380D02*
X101266666Y-123166666D01*
X101219047Y-123309523D01*
X101123809Y-123404761D01*
X100980952Y-123452380D01*
X100885714Y-123452380D01*
X102171428Y-122452380D02*
X101980952Y-122452380D01*
X101885714Y-122500000D01*
X101838095Y-122547619D01*
X101742857Y-122690476D01*
X101695238Y-122880952D01*
X101695238Y-123261904D01*
X101742857Y-123357142D01*
X101790476Y-123404761D01*
X101885714Y-123452380D01*
X102076190Y-123452380D01*
X102171428Y-123404761D01*
X102219047Y-123357142D01*
X102266666Y-123261904D01*
X102266666Y-123023809D01*
X102219047Y-122928571D01*
X102171428Y-122880952D01*
X102076190Y-122833333D01*
X101885714Y-122833333D01*
X101790476Y-122880952D01*
X101742857Y-122928571D01*
X101695238Y-123023809D01*
%TO.C,J5*%
X75866666Y-122452380D02*
X75866666Y-123166666D01*
X75819047Y-123309523D01*
X75723809Y-123404761D01*
X75580952Y-123452380D01*
X75485714Y-123452380D01*
X76819047Y-122452380D02*
X76342857Y-122452380D01*
X76295238Y-122928571D01*
X76342857Y-122880952D01*
X76438095Y-122833333D01*
X76676190Y-122833333D01*
X76771428Y-122880952D01*
X76819047Y-122928571D01*
X76866666Y-123023809D01*
X76866666Y-123261904D01*
X76819047Y-123357142D01*
X76771428Y-123404761D01*
X76676190Y-123452380D01*
X76438095Y-123452380D01*
X76342857Y-123404761D01*
X76295238Y-123357142D01*
%TO.C,J4*%
X152066666Y-74572380D02*
X152066666Y-75286666D01*
X152019047Y-75429523D01*
X151923809Y-75524761D01*
X151780952Y-75572380D01*
X151685714Y-75572380D01*
X152971428Y-74905714D02*
X152971428Y-75572380D01*
X152733333Y-74524761D02*
X152495238Y-75239047D01*
X153114285Y-75239047D01*
%TO.C,J3*%
X126666666Y-74572380D02*
X126666666Y-75286666D01*
X126619047Y-75429523D01*
X126523809Y-75524761D01*
X126380952Y-75572380D01*
X126285714Y-75572380D01*
X127047619Y-74572380D02*
X127666666Y-74572380D01*
X127333333Y-74953333D01*
X127476190Y-74953333D01*
X127571428Y-75000952D01*
X127619047Y-75048571D01*
X127666666Y-75143809D01*
X127666666Y-75381904D01*
X127619047Y-75477142D01*
X127571428Y-75524761D01*
X127476190Y-75572380D01*
X127190476Y-75572380D01*
X127095238Y-75524761D01*
X127047619Y-75477142D01*
%TO.C,J2*%
X101266666Y-74572380D02*
X101266666Y-75286666D01*
X101219047Y-75429523D01*
X101123809Y-75524761D01*
X100980952Y-75572380D01*
X100885714Y-75572380D01*
X101695238Y-74667619D02*
X101742857Y-74620000D01*
X101838095Y-74572380D01*
X102076190Y-74572380D01*
X102171428Y-74620000D01*
X102219047Y-74667619D01*
X102266666Y-74762857D01*
X102266666Y-74858095D01*
X102219047Y-75000952D01*
X101647619Y-75572380D01*
X102266666Y-75572380D01*
%TO.C,J1*%
X75866666Y-74572380D02*
X75866666Y-75286666D01*
X75819047Y-75429523D01*
X75723809Y-75524761D01*
X75580952Y-75572380D01*
X75485714Y-75572380D01*
X76866666Y-75572380D02*
X76295238Y-75572380D01*
X76580952Y-75572380D02*
X76580952Y-74572380D01*
X76485714Y-74715238D01*
X76390476Y-74810476D01*
X76295238Y-74858095D01*
%TO.C,K16*%
X119437380Y-112584285D02*
X118437380Y-112584285D01*
X119437380Y-112012857D02*
X118865952Y-112441428D01*
X118437380Y-112012857D02*
X119008809Y-112584285D01*
X119437380Y-111060476D02*
X119437380Y-111631904D01*
X119437380Y-111346190D02*
X118437380Y-111346190D01*
X118580238Y-111441428D01*
X118675476Y-111536666D01*
X118723095Y-111631904D01*
X118437380Y-110203333D02*
X118437380Y-110393809D01*
X118485000Y-110489047D01*
X118532619Y-110536666D01*
X118675476Y-110631904D01*
X118865952Y-110679523D01*
X119246904Y-110679523D01*
X119342142Y-110631904D01*
X119389761Y-110584285D01*
X119437380Y-110489047D01*
X119437380Y-110298571D01*
X119389761Y-110203333D01*
X119342142Y-110155714D01*
X119246904Y-110108095D01*
X119008809Y-110108095D01*
X118913571Y-110155714D01*
X118865952Y-110203333D01*
X118818333Y-110298571D01*
X118818333Y-110489047D01*
X118865952Y-110584285D01*
X118913571Y-110631904D01*
X119008809Y-110679523D01*
%TO.C,K15*%
X111182380Y-112584285D02*
X110182380Y-112584285D01*
X111182380Y-112012857D02*
X110610952Y-112441428D01*
X110182380Y-112012857D02*
X110753809Y-112584285D01*
X111182380Y-111060476D02*
X111182380Y-111631904D01*
X111182380Y-111346190D02*
X110182380Y-111346190D01*
X110325238Y-111441428D01*
X110420476Y-111536666D01*
X110468095Y-111631904D01*
X110182380Y-110155714D02*
X110182380Y-110631904D01*
X110658571Y-110679523D01*
X110610952Y-110631904D01*
X110563333Y-110536666D01*
X110563333Y-110298571D01*
X110610952Y-110203333D01*
X110658571Y-110155714D01*
X110753809Y-110108095D01*
X110991904Y-110108095D01*
X111087142Y-110155714D01*
X111134761Y-110203333D01*
X111182380Y-110298571D01*
X111182380Y-110536666D01*
X111134761Y-110631904D01*
X111087142Y-110679523D01*
%TO.C,K14*%
X119437380Y-87184285D02*
X118437380Y-87184285D01*
X119437380Y-86612857D02*
X118865952Y-87041428D01*
X118437380Y-86612857D02*
X119008809Y-87184285D01*
X119437380Y-85660476D02*
X119437380Y-86231904D01*
X119437380Y-85946190D02*
X118437380Y-85946190D01*
X118580238Y-86041428D01*
X118675476Y-86136666D01*
X118723095Y-86231904D01*
X118770714Y-84803333D02*
X119437380Y-84803333D01*
X118389761Y-85041428D02*
X119104047Y-85279523D01*
X119104047Y-84660476D01*
%TO.C,K13*%
X111182380Y-87184285D02*
X110182380Y-87184285D01*
X111182380Y-86612857D02*
X110610952Y-87041428D01*
X110182380Y-86612857D02*
X110753809Y-87184285D01*
X111182380Y-85660476D02*
X111182380Y-86231904D01*
X111182380Y-85946190D02*
X110182380Y-85946190D01*
X110325238Y-86041428D01*
X110420476Y-86136666D01*
X110468095Y-86231904D01*
X110182380Y-85327142D02*
X110182380Y-84708095D01*
X110563333Y-85041428D01*
X110563333Y-84898571D01*
X110610952Y-84803333D01*
X110658571Y-84755714D01*
X110753809Y-84708095D01*
X110991904Y-84708095D01*
X111087142Y-84755714D01*
X111134761Y-84803333D01*
X111182380Y-84898571D01*
X111182380Y-85184285D01*
X111134761Y-85279523D01*
X111087142Y-85327142D01*
%TO.C,K12*%
X102927380Y-112584285D02*
X101927380Y-112584285D01*
X102927380Y-112012857D02*
X102355952Y-112441428D01*
X101927380Y-112012857D02*
X102498809Y-112584285D01*
X102927380Y-111060476D02*
X102927380Y-111631904D01*
X102927380Y-111346190D02*
X101927380Y-111346190D01*
X102070238Y-111441428D01*
X102165476Y-111536666D01*
X102213095Y-111631904D01*
X102022619Y-110679523D02*
X101975000Y-110631904D01*
X101927380Y-110536666D01*
X101927380Y-110298571D01*
X101975000Y-110203333D01*
X102022619Y-110155714D01*
X102117857Y-110108095D01*
X102213095Y-110108095D01*
X102355952Y-110155714D01*
X102927380Y-110727142D01*
X102927380Y-110108095D01*
%TO.C,K11*%
X94672380Y-112584285D02*
X93672380Y-112584285D01*
X94672380Y-112012857D02*
X94100952Y-112441428D01*
X93672380Y-112012857D02*
X94243809Y-112584285D01*
X94672380Y-111060476D02*
X94672380Y-111631904D01*
X94672380Y-111346190D02*
X93672380Y-111346190D01*
X93815238Y-111441428D01*
X93910476Y-111536666D01*
X93958095Y-111631904D01*
X94672380Y-110108095D02*
X94672380Y-110679523D01*
X94672380Y-110393809D02*
X93672380Y-110393809D01*
X93815238Y-110489047D01*
X93910476Y-110584285D01*
X93958095Y-110679523D01*
%TO.C,K10*%
X102927380Y-87184285D02*
X101927380Y-87184285D01*
X102927380Y-86612857D02*
X102355952Y-87041428D01*
X101927380Y-86612857D02*
X102498809Y-87184285D01*
X102927380Y-85660476D02*
X102927380Y-86231904D01*
X102927380Y-85946190D02*
X101927380Y-85946190D01*
X102070238Y-86041428D01*
X102165476Y-86136666D01*
X102213095Y-86231904D01*
X101927380Y-85041428D02*
X101927380Y-84946190D01*
X101975000Y-84850952D01*
X102022619Y-84803333D01*
X102117857Y-84755714D01*
X102308333Y-84708095D01*
X102546428Y-84708095D01*
X102736904Y-84755714D01*
X102832142Y-84803333D01*
X102879761Y-84850952D01*
X102927380Y-84946190D01*
X102927380Y-85041428D01*
X102879761Y-85136666D01*
X102832142Y-85184285D01*
X102736904Y-85231904D01*
X102546428Y-85279523D01*
X102308333Y-85279523D01*
X102117857Y-85231904D01*
X102022619Y-85184285D01*
X101975000Y-85136666D01*
X101927380Y-85041428D01*
%TO.C,K9*%
X94672380Y-86708095D02*
X93672380Y-86708095D01*
X94672380Y-86136666D02*
X94100952Y-86565238D01*
X93672380Y-86136666D02*
X94243809Y-86708095D01*
X94672380Y-85660476D02*
X94672380Y-85470000D01*
X94624761Y-85374761D01*
X94577142Y-85327142D01*
X94434285Y-85231904D01*
X94243809Y-85184285D01*
X93862857Y-85184285D01*
X93767619Y-85231904D01*
X93720000Y-85279523D01*
X93672380Y-85374761D01*
X93672380Y-85565238D01*
X93720000Y-85660476D01*
X93767619Y-85708095D01*
X93862857Y-85755714D01*
X94100952Y-85755714D01*
X94196190Y-85708095D01*
X94243809Y-85660476D01*
X94291428Y-85565238D01*
X94291428Y-85374761D01*
X94243809Y-85279523D01*
X94196190Y-85231904D01*
X94100952Y-85184285D01*
%TO.C,K8*%
X86417380Y-112108095D02*
X85417380Y-112108095D01*
X86417380Y-111536666D02*
X85845952Y-111965238D01*
X85417380Y-111536666D02*
X85988809Y-112108095D01*
X85845952Y-110965238D02*
X85798333Y-111060476D01*
X85750714Y-111108095D01*
X85655476Y-111155714D01*
X85607857Y-111155714D01*
X85512619Y-111108095D01*
X85465000Y-111060476D01*
X85417380Y-110965238D01*
X85417380Y-110774761D01*
X85465000Y-110679523D01*
X85512619Y-110631904D01*
X85607857Y-110584285D01*
X85655476Y-110584285D01*
X85750714Y-110631904D01*
X85798333Y-110679523D01*
X85845952Y-110774761D01*
X85845952Y-110965238D01*
X85893571Y-111060476D01*
X85941190Y-111108095D01*
X86036428Y-111155714D01*
X86226904Y-111155714D01*
X86322142Y-111108095D01*
X86369761Y-111060476D01*
X86417380Y-110965238D01*
X86417380Y-110774761D01*
X86369761Y-110679523D01*
X86322142Y-110631904D01*
X86226904Y-110584285D01*
X86036428Y-110584285D01*
X85941190Y-110631904D01*
X85893571Y-110679523D01*
X85845952Y-110774761D01*
%TO.C,K7*%
X78162380Y-112108095D02*
X77162380Y-112108095D01*
X78162380Y-111536666D02*
X77590952Y-111965238D01*
X77162380Y-111536666D02*
X77733809Y-112108095D01*
X77162380Y-111203333D02*
X77162380Y-110536666D01*
X78162380Y-110965238D01*
%TO.C,K6*%
X86417380Y-86708095D02*
X85417380Y-86708095D01*
X86417380Y-86136666D02*
X85845952Y-86565238D01*
X85417380Y-86136666D02*
X85988809Y-86708095D01*
X85417380Y-85279523D02*
X85417380Y-85470000D01*
X85465000Y-85565238D01*
X85512619Y-85612857D01*
X85655476Y-85708095D01*
X85845952Y-85755714D01*
X86226904Y-85755714D01*
X86322142Y-85708095D01*
X86369761Y-85660476D01*
X86417380Y-85565238D01*
X86417380Y-85374761D01*
X86369761Y-85279523D01*
X86322142Y-85231904D01*
X86226904Y-85184285D01*
X85988809Y-85184285D01*
X85893571Y-85231904D01*
X85845952Y-85279523D01*
X85798333Y-85374761D01*
X85798333Y-85565238D01*
X85845952Y-85660476D01*
X85893571Y-85708095D01*
X85988809Y-85755714D01*
%TO.C,K5*%
X78162380Y-86708095D02*
X77162380Y-86708095D01*
X78162380Y-86136666D02*
X77590952Y-86565238D01*
X77162380Y-86136666D02*
X77733809Y-86708095D01*
X77162380Y-85231904D02*
X77162380Y-85708095D01*
X77638571Y-85755714D01*
X77590952Y-85708095D01*
X77543333Y-85612857D01*
X77543333Y-85374761D01*
X77590952Y-85279523D01*
X77638571Y-85231904D01*
X77733809Y-85184285D01*
X77971904Y-85184285D01*
X78067142Y-85231904D01*
X78114761Y-85279523D01*
X78162380Y-85374761D01*
X78162380Y-85612857D01*
X78114761Y-85708095D01*
X78067142Y-85755714D01*
%TO.C,K4*%
X69907380Y-112108095D02*
X68907380Y-112108095D01*
X69907380Y-111536666D02*
X69335952Y-111965238D01*
X68907380Y-111536666D02*
X69478809Y-112108095D01*
X69240714Y-110679523D02*
X69907380Y-110679523D01*
X68859761Y-110917619D02*
X69574047Y-111155714D01*
X69574047Y-110536666D01*
%TO.C,K3*%
X61652380Y-112108095D02*
X60652380Y-112108095D01*
X61652380Y-111536666D02*
X61080952Y-111965238D01*
X60652380Y-111536666D02*
X61223809Y-112108095D01*
X60652380Y-111203333D02*
X60652380Y-110584285D01*
X61033333Y-110917619D01*
X61033333Y-110774761D01*
X61080952Y-110679523D01*
X61128571Y-110631904D01*
X61223809Y-110584285D01*
X61461904Y-110584285D01*
X61557142Y-110631904D01*
X61604761Y-110679523D01*
X61652380Y-110774761D01*
X61652380Y-111060476D01*
X61604761Y-111155714D01*
X61557142Y-111203333D01*
%TO.C,K2*%
X69907380Y-86708095D02*
X68907380Y-86708095D01*
X69907380Y-86136666D02*
X69335952Y-86565238D01*
X68907380Y-86136666D02*
X69478809Y-86708095D01*
X69002619Y-85755714D02*
X68955000Y-85708095D01*
X68907380Y-85612857D01*
X68907380Y-85374761D01*
X68955000Y-85279523D01*
X69002619Y-85231904D01*
X69097857Y-85184285D01*
X69193095Y-85184285D01*
X69335952Y-85231904D01*
X69907380Y-85803333D01*
X69907380Y-85184285D01*
%TO.C,K1*%
X61652380Y-86708095D02*
X60652380Y-86708095D01*
X61652380Y-86136666D02*
X61080952Y-86565238D01*
X60652380Y-86136666D02*
X61223809Y-86708095D01*
X61652380Y-85184285D02*
X61652380Y-85755714D01*
X61652380Y-85470000D02*
X60652380Y-85470000D01*
X60795238Y-85565238D01*
X60890476Y-85660476D01*
X60938095Y-85755714D01*
%TO.C,R32*%
X132532380Y-113418857D02*
X132056190Y-113752190D01*
X132532380Y-113990285D02*
X131532380Y-113990285D01*
X131532380Y-113609333D01*
X131580000Y-113514095D01*
X131627619Y-113466476D01*
X131722857Y-113418857D01*
X131865714Y-113418857D01*
X131960952Y-113466476D01*
X132008571Y-113514095D01*
X132056190Y-113609333D01*
X132056190Y-113990285D01*
X131532380Y-113085523D02*
X131532380Y-112466476D01*
X131913333Y-112799809D01*
X131913333Y-112656952D01*
X131960952Y-112561714D01*
X132008571Y-112514095D01*
X132103809Y-112466476D01*
X132341904Y-112466476D01*
X132437142Y-112514095D01*
X132484761Y-112561714D01*
X132532380Y-112656952D01*
X132532380Y-112942666D01*
X132484761Y-113037904D01*
X132437142Y-113085523D01*
X131627619Y-112085523D02*
X131580000Y-112037904D01*
X131532380Y-111942666D01*
X131532380Y-111704571D01*
X131580000Y-111609333D01*
X131627619Y-111561714D01*
X131722857Y-111514095D01*
X131818095Y-111514095D01*
X131960952Y-111561714D01*
X132532380Y-112133142D01*
X132532380Y-111514095D01*
%TO.C,R31*%
X137612380Y-113418857D02*
X137136190Y-113752190D01*
X137612380Y-113990285D02*
X136612380Y-113990285D01*
X136612380Y-113609333D01*
X136660000Y-113514095D01*
X136707619Y-113466476D01*
X136802857Y-113418857D01*
X136945714Y-113418857D01*
X137040952Y-113466476D01*
X137088571Y-113514095D01*
X137136190Y-113609333D01*
X137136190Y-113990285D01*
X136612380Y-113085523D02*
X136612380Y-112466476D01*
X136993333Y-112799809D01*
X136993333Y-112656952D01*
X137040952Y-112561714D01*
X137088571Y-112514095D01*
X137183809Y-112466476D01*
X137421904Y-112466476D01*
X137517142Y-112514095D01*
X137564761Y-112561714D01*
X137612380Y-112656952D01*
X137612380Y-112942666D01*
X137564761Y-113037904D01*
X137517142Y-113085523D01*
X137612380Y-111514095D02*
X137612380Y-112085523D01*
X137612380Y-111799809D02*
X136612380Y-111799809D01*
X136755238Y-111895047D01*
X136850476Y-111990285D01*
X136898095Y-112085523D01*
%TO.C,R30*%
X142692380Y-113418857D02*
X142216190Y-113752190D01*
X142692380Y-113990285D02*
X141692380Y-113990285D01*
X141692380Y-113609333D01*
X141740000Y-113514095D01*
X141787619Y-113466476D01*
X141882857Y-113418857D01*
X142025714Y-113418857D01*
X142120952Y-113466476D01*
X142168571Y-113514095D01*
X142216190Y-113609333D01*
X142216190Y-113990285D01*
X141692380Y-113085523D02*
X141692380Y-112466476D01*
X142073333Y-112799809D01*
X142073333Y-112656952D01*
X142120952Y-112561714D01*
X142168571Y-112514095D01*
X142263809Y-112466476D01*
X142501904Y-112466476D01*
X142597142Y-112514095D01*
X142644761Y-112561714D01*
X142692380Y-112656952D01*
X142692380Y-112942666D01*
X142644761Y-113037904D01*
X142597142Y-113085523D01*
X141692380Y-111847428D02*
X141692380Y-111752190D01*
X141740000Y-111656952D01*
X141787619Y-111609333D01*
X141882857Y-111561714D01*
X142073333Y-111514095D01*
X142311428Y-111514095D01*
X142501904Y-111561714D01*
X142597142Y-111609333D01*
X142644761Y-111656952D01*
X142692380Y-111752190D01*
X142692380Y-111847428D01*
X142644761Y-111942666D01*
X142597142Y-111990285D01*
X142501904Y-112037904D01*
X142311428Y-112085523D01*
X142073333Y-112085523D01*
X141882857Y-112037904D01*
X141787619Y-111990285D01*
X141740000Y-111942666D01*
X141692380Y-111847428D01*
%TO.C,R29*%
X147772380Y-113418857D02*
X147296190Y-113752190D01*
X147772380Y-113990285D02*
X146772380Y-113990285D01*
X146772380Y-113609333D01*
X146820000Y-113514095D01*
X146867619Y-113466476D01*
X146962857Y-113418857D01*
X147105714Y-113418857D01*
X147200952Y-113466476D01*
X147248571Y-113514095D01*
X147296190Y-113609333D01*
X147296190Y-113990285D01*
X146867619Y-113037904D02*
X146820000Y-112990285D01*
X146772380Y-112895047D01*
X146772380Y-112656952D01*
X146820000Y-112561714D01*
X146867619Y-112514095D01*
X146962857Y-112466476D01*
X147058095Y-112466476D01*
X147200952Y-112514095D01*
X147772380Y-113085523D01*
X147772380Y-112466476D01*
X147772380Y-111990285D02*
X147772380Y-111799809D01*
X147724761Y-111704571D01*
X147677142Y-111656952D01*
X147534285Y-111561714D01*
X147343809Y-111514095D01*
X146962857Y-111514095D01*
X146867619Y-111561714D01*
X146820000Y-111609333D01*
X146772380Y-111704571D01*
X146772380Y-111895047D01*
X146820000Y-111990285D01*
X146867619Y-112037904D01*
X146962857Y-112085523D01*
X147200952Y-112085523D01*
X147296190Y-112037904D01*
X147343809Y-111990285D01*
X147391428Y-111895047D01*
X147391428Y-111704571D01*
X147343809Y-111609333D01*
X147296190Y-111561714D01*
X147200952Y-111514095D01*
%TO.C,R28*%
X152852380Y-113418857D02*
X152376190Y-113752190D01*
X152852380Y-113990285D02*
X151852380Y-113990285D01*
X151852380Y-113609333D01*
X151900000Y-113514095D01*
X151947619Y-113466476D01*
X152042857Y-113418857D01*
X152185714Y-113418857D01*
X152280952Y-113466476D01*
X152328571Y-113514095D01*
X152376190Y-113609333D01*
X152376190Y-113990285D01*
X151947619Y-113037904D02*
X151900000Y-112990285D01*
X151852380Y-112895047D01*
X151852380Y-112656952D01*
X151900000Y-112561714D01*
X151947619Y-112514095D01*
X152042857Y-112466476D01*
X152138095Y-112466476D01*
X152280952Y-112514095D01*
X152852380Y-113085523D01*
X152852380Y-112466476D01*
X152280952Y-111895047D02*
X152233333Y-111990285D01*
X152185714Y-112037904D01*
X152090476Y-112085523D01*
X152042857Y-112085523D01*
X151947619Y-112037904D01*
X151900000Y-111990285D01*
X151852380Y-111895047D01*
X151852380Y-111704571D01*
X151900000Y-111609333D01*
X151947619Y-111561714D01*
X152042857Y-111514095D01*
X152090476Y-111514095D01*
X152185714Y-111561714D01*
X152233333Y-111609333D01*
X152280952Y-111704571D01*
X152280952Y-111895047D01*
X152328571Y-111990285D01*
X152376190Y-112037904D01*
X152471428Y-112085523D01*
X152661904Y-112085523D01*
X152757142Y-112037904D01*
X152804761Y-111990285D01*
X152852380Y-111895047D01*
X152852380Y-111704571D01*
X152804761Y-111609333D01*
X152757142Y-111561714D01*
X152661904Y-111514095D01*
X152471428Y-111514095D01*
X152376190Y-111561714D01*
X152328571Y-111609333D01*
X152280952Y-111704571D01*
%TO.C,R27*%
X157932380Y-113418857D02*
X157456190Y-113752190D01*
X157932380Y-113990285D02*
X156932380Y-113990285D01*
X156932380Y-113609333D01*
X156980000Y-113514095D01*
X157027619Y-113466476D01*
X157122857Y-113418857D01*
X157265714Y-113418857D01*
X157360952Y-113466476D01*
X157408571Y-113514095D01*
X157456190Y-113609333D01*
X157456190Y-113990285D01*
X157027619Y-113037904D02*
X156980000Y-112990285D01*
X156932380Y-112895047D01*
X156932380Y-112656952D01*
X156980000Y-112561714D01*
X157027619Y-112514095D01*
X157122857Y-112466476D01*
X157218095Y-112466476D01*
X157360952Y-112514095D01*
X157932380Y-113085523D01*
X157932380Y-112466476D01*
X156932380Y-112133142D02*
X156932380Y-111466476D01*
X157932380Y-111895047D01*
%TO.C,R26*%
X163012380Y-113418857D02*
X162536190Y-113752190D01*
X163012380Y-113990285D02*
X162012380Y-113990285D01*
X162012380Y-113609333D01*
X162060000Y-113514095D01*
X162107619Y-113466476D01*
X162202857Y-113418857D01*
X162345714Y-113418857D01*
X162440952Y-113466476D01*
X162488571Y-113514095D01*
X162536190Y-113609333D01*
X162536190Y-113990285D01*
X162107619Y-113037904D02*
X162060000Y-112990285D01*
X162012380Y-112895047D01*
X162012380Y-112656952D01*
X162060000Y-112561714D01*
X162107619Y-112514095D01*
X162202857Y-112466476D01*
X162298095Y-112466476D01*
X162440952Y-112514095D01*
X163012380Y-113085523D01*
X163012380Y-112466476D01*
X162012380Y-111609333D02*
X162012380Y-111799809D01*
X162060000Y-111895047D01*
X162107619Y-111942666D01*
X162250476Y-112037904D01*
X162440952Y-112085523D01*
X162821904Y-112085523D01*
X162917142Y-112037904D01*
X162964761Y-111990285D01*
X163012380Y-111895047D01*
X163012380Y-111704571D01*
X162964761Y-111609333D01*
X162917142Y-111561714D01*
X162821904Y-111514095D01*
X162583809Y-111514095D01*
X162488571Y-111561714D01*
X162440952Y-111609333D01*
X162393333Y-111704571D01*
X162393333Y-111895047D01*
X162440952Y-111990285D01*
X162488571Y-112037904D01*
X162583809Y-112085523D01*
%TO.C,R25*%
X168092380Y-113418857D02*
X167616190Y-113752190D01*
X168092380Y-113990285D02*
X167092380Y-113990285D01*
X167092380Y-113609333D01*
X167140000Y-113514095D01*
X167187619Y-113466476D01*
X167282857Y-113418857D01*
X167425714Y-113418857D01*
X167520952Y-113466476D01*
X167568571Y-113514095D01*
X167616190Y-113609333D01*
X167616190Y-113990285D01*
X167187619Y-113037904D02*
X167140000Y-112990285D01*
X167092380Y-112895047D01*
X167092380Y-112656952D01*
X167140000Y-112561714D01*
X167187619Y-112514095D01*
X167282857Y-112466476D01*
X167378095Y-112466476D01*
X167520952Y-112514095D01*
X168092380Y-113085523D01*
X168092380Y-112466476D01*
X167092380Y-111561714D02*
X167092380Y-112037904D01*
X167568571Y-112085523D01*
X167520952Y-112037904D01*
X167473333Y-111942666D01*
X167473333Y-111704571D01*
X167520952Y-111609333D01*
X167568571Y-111561714D01*
X167663809Y-111514095D01*
X167901904Y-111514095D01*
X167997142Y-111561714D01*
X168044761Y-111609333D01*
X168092380Y-111704571D01*
X168092380Y-111942666D01*
X168044761Y-112037904D01*
X167997142Y-112085523D01*
%TO.C,R24*%
X132532380Y-88526857D02*
X132056190Y-88860190D01*
X132532380Y-89098285D02*
X131532380Y-89098285D01*
X131532380Y-88717333D01*
X131580000Y-88622095D01*
X131627619Y-88574476D01*
X131722857Y-88526857D01*
X131865714Y-88526857D01*
X131960952Y-88574476D01*
X132008571Y-88622095D01*
X132056190Y-88717333D01*
X132056190Y-89098285D01*
X131627619Y-88145904D02*
X131580000Y-88098285D01*
X131532380Y-88003047D01*
X131532380Y-87764952D01*
X131580000Y-87669714D01*
X131627619Y-87622095D01*
X131722857Y-87574476D01*
X131818095Y-87574476D01*
X131960952Y-87622095D01*
X132532380Y-88193523D01*
X132532380Y-87574476D01*
X131865714Y-86717333D02*
X132532380Y-86717333D01*
X131484761Y-86955428D02*
X132199047Y-87193523D01*
X132199047Y-86574476D01*
%TO.C,R23*%
X137612380Y-88526857D02*
X137136190Y-88860190D01*
X137612380Y-89098285D02*
X136612380Y-89098285D01*
X136612380Y-88717333D01*
X136660000Y-88622095D01*
X136707619Y-88574476D01*
X136802857Y-88526857D01*
X136945714Y-88526857D01*
X137040952Y-88574476D01*
X137088571Y-88622095D01*
X137136190Y-88717333D01*
X137136190Y-89098285D01*
X136707619Y-88145904D02*
X136660000Y-88098285D01*
X136612380Y-88003047D01*
X136612380Y-87764952D01*
X136660000Y-87669714D01*
X136707619Y-87622095D01*
X136802857Y-87574476D01*
X136898095Y-87574476D01*
X137040952Y-87622095D01*
X137612380Y-88193523D01*
X137612380Y-87574476D01*
X136612380Y-87241142D02*
X136612380Y-86622095D01*
X136993333Y-86955428D01*
X136993333Y-86812571D01*
X137040952Y-86717333D01*
X137088571Y-86669714D01*
X137183809Y-86622095D01*
X137421904Y-86622095D01*
X137517142Y-86669714D01*
X137564761Y-86717333D01*
X137612380Y-86812571D01*
X137612380Y-87098285D01*
X137564761Y-87193523D01*
X137517142Y-87241142D01*
%TO.C,R22*%
X142692380Y-88526857D02*
X142216190Y-88860190D01*
X142692380Y-89098285D02*
X141692380Y-89098285D01*
X141692380Y-88717333D01*
X141740000Y-88622095D01*
X141787619Y-88574476D01*
X141882857Y-88526857D01*
X142025714Y-88526857D01*
X142120952Y-88574476D01*
X142168571Y-88622095D01*
X142216190Y-88717333D01*
X142216190Y-89098285D01*
X141787619Y-88145904D02*
X141740000Y-88098285D01*
X141692380Y-88003047D01*
X141692380Y-87764952D01*
X141740000Y-87669714D01*
X141787619Y-87622095D01*
X141882857Y-87574476D01*
X141978095Y-87574476D01*
X142120952Y-87622095D01*
X142692380Y-88193523D01*
X142692380Y-87574476D01*
X141787619Y-87193523D02*
X141740000Y-87145904D01*
X141692380Y-87050666D01*
X141692380Y-86812571D01*
X141740000Y-86717333D01*
X141787619Y-86669714D01*
X141882857Y-86622095D01*
X141978095Y-86622095D01*
X142120952Y-86669714D01*
X142692380Y-87241142D01*
X142692380Y-86622095D01*
%TO.C,R21*%
X147772380Y-88526857D02*
X147296190Y-88860190D01*
X147772380Y-89098285D02*
X146772380Y-89098285D01*
X146772380Y-88717333D01*
X146820000Y-88622095D01*
X146867619Y-88574476D01*
X146962857Y-88526857D01*
X147105714Y-88526857D01*
X147200952Y-88574476D01*
X147248571Y-88622095D01*
X147296190Y-88717333D01*
X147296190Y-89098285D01*
X146867619Y-88145904D02*
X146820000Y-88098285D01*
X146772380Y-88003047D01*
X146772380Y-87764952D01*
X146820000Y-87669714D01*
X146867619Y-87622095D01*
X146962857Y-87574476D01*
X147058095Y-87574476D01*
X147200952Y-87622095D01*
X147772380Y-88193523D01*
X147772380Y-87574476D01*
X147772380Y-86622095D02*
X147772380Y-87193523D01*
X147772380Y-86907809D02*
X146772380Y-86907809D01*
X146915238Y-87003047D01*
X147010476Y-87098285D01*
X147058095Y-87193523D01*
%TO.C,R20*%
X152852380Y-88272857D02*
X152376190Y-88606190D01*
X152852380Y-88844285D02*
X151852380Y-88844285D01*
X151852380Y-88463333D01*
X151900000Y-88368095D01*
X151947619Y-88320476D01*
X152042857Y-88272857D01*
X152185714Y-88272857D01*
X152280952Y-88320476D01*
X152328571Y-88368095D01*
X152376190Y-88463333D01*
X152376190Y-88844285D01*
X151947619Y-87891904D02*
X151900000Y-87844285D01*
X151852380Y-87749047D01*
X151852380Y-87510952D01*
X151900000Y-87415714D01*
X151947619Y-87368095D01*
X152042857Y-87320476D01*
X152138095Y-87320476D01*
X152280952Y-87368095D01*
X152852380Y-87939523D01*
X152852380Y-87320476D01*
X151852380Y-86701428D02*
X151852380Y-86606190D01*
X151900000Y-86510952D01*
X151947619Y-86463333D01*
X152042857Y-86415714D01*
X152233333Y-86368095D01*
X152471428Y-86368095D01*
X152661904Y-86415714D01*
X152757142Y-86463333D01*
X152804761Y-86510952D01*
X152852380Y-86606190D01*
X152852380Y-86701428D01*
X152804761Y-86796666D01*
X152757142Y-86844285D01*
X152661904Y-86891904D01*
X152471428Y-86939523D01*
X152233333Y-86939523D01*
X152042857Y-86891904D01*
X151947619Y-86844285D01*
X151900000Y-86796666D01*
X151852380Y-86701428D01*
%TO.C,R19*%
X157932380Y-88526857D02*
X157456190Y-88860190D01*
X157932380Y-89098285D02*
X156932380Y-89098285D01*
X156932380Y-88717333D01*
X156980000Y-88622095D01*
X157027619Y-88574476D01*
X157122857Y-88526857D01*
X157265714Y-88526857D01*
X157360952Y-88574476D01*
X157408571Y-88622095D01*
X157456190Y-88717333D01*
X157456190Y-89098285D01*
X157932380Y-87574476D02*
X157932380Y-88145904D01*
X157932380Y-87860190D02*
X156932380Y-87860190D01*
X157075238Y-87955428D01*
X157170476Y-88050666D01*
X157218095Y-88145904D01*
X157932380Y-87098285D02*
X157932380Y-86907809D01*
X157884761Y-86812571D01*
X157837142Y-86764952D01*
X157694285Y-86669714D01*
X157503809Y-86622095D01*
X157122857Y-86622095D01*
X157027619Y-86669714D01*
X156980000Y-86717333D01*
X156932380Y-86812571D01*
X156932380Y-87003047D01*
X156980000Y-87098285D01*
X157027619Y-87145904D01*
X157122857Y-87193523D01*
X157360952Y-87193523D01*
X157456190Y-87145904D01*
X157503809Y-87098285D01*
X157551428Y-87003047D01*
X157551428Y-86812571D01*
X157503809Y-86717333D01*
X157456190Y-86669714D01*
X157360952Y-86622095D01*
%TO.C,R18*%
X163012380Y-88526857D02*
X162536190Y-88860190D01*
X163012380Y-89098285D02*
X162012380Y-89098285D01*
X162012380Y-88717333D01*
X162060000Y-88622095D01*
X162107619Y-88574476D01*
X162202857Y-88526857D01*
X162345714Y-88526857D01*
X162440952Y-88574476D01*
X162488571Y-88622095D01*
X162536190Y-88717333D01*
X162536190Y-89098285D01*
X163012380Y-87574476D02*
X163012380Y-88145904D01*
X163012380Y-87860190D02*
X162012380Y-87860190D01*
X162155238Y-87955428D01*
X162250476Y-88050666D01*
X162298095Y-88145904D01*
X162440952Y-87003047D02*
X162393333Y-87098285D01*
X162345714Y-87145904D01*
X162250476Y-87193523D01*
X162202857Y-87193523D01*
X162107619Y-87145904D01*
X162060000Y-87098285D01*
X162012380Y-87003047D01*
X162012380Y-86812571D01*
X162060000Y-86717333D01*
X162107619Y-86669714D01*
X162202857Y-86622095D01*
X162250476Y-86622095D01*
X162345714Y-86669714D01*
X162393333Y-86717333D01*
X162440952Y-86812571D01*
X162440952Y-87003047D01*
X162488571Y-87098285D01*
X162536190Y-87145904D01*
X162631428Y-87193523D01*
X162821904Y-87193523D01*
X162917142Y-87145904D01*
X162964761Y-87098285D01*
X163012380Y-87003047D01*
X163012380Y-86812571D01*
X162964761Y-86717333D01*
X162917142Y-86669714D01*
X162821904Y-86622095D01*
X162631428Y-86622095D01*
X162536190Y-86669714D01*
X162488571Y-86717333D01*
X162440952Y-86812571D01*
%TO.C,R17*%
X168092380Y-88526857D02*
X167616190Y-88860190D01*
X168092380Y-89098285D02*
X167092380Y-89098285D01*
X167092380Y-88717333D01*
X167140000Y-88622095D01*
X167187619Y-88574476D01*
X167282857Y-88526857D01*
X167425714Y-88526857D01*
X167520952Y-88574476D01*
X167568571Y-88622095D01*
X167616190Y-88717333D01*
X167616190Y-89098285D01*
X168092380Y-87574476D02*
X168092380Y-88145904D01*
X168092380Y-87860190D02*
X167092380Y-87860190D01*
X167235238Y-87955428D01*
X167330476Y-88050666D01*
X167378095Y-88145904D01*
X167092380Y-87241142D02*
X167092380Y-86574476D01*
X168092380Y-87003047D01*
%TO.C,R16*%
X168092380Y-117482857D02*
X167616190Y-117816190D01*
X168092380Y-118054285D02*
X167092380Y-118054285D01*
X167092380Y-117673333D01*
X167140000Y-117578095D01*
X167187619Y-117530476D01*
X167282857Y-117482857D01*
X167425714Y-117482857D01*
X167520952Y-117530476D01*
X167568571Y-117578095D01*
X167616190Y-117673333D01*
X167616190Y-118054285D01*
X168092380Y-116530476D02*
X168092380Y-117101904D01*
X168092380Y-116816190D02*
X167092380Y-116816190D01*
X167235238Y-116911428D01*
X167330476Y-117006666D01*
X167378095Y-117101904D01*
X167092380Y-115673333D02*
X167092380Y-115863809D01*
X167140000Y-115959047D01*
X167187619Y-116006666D01*
X167330476Y-116101904D01*
X167520952Y-116149523D01*
X167901904Y-116149523D01*
X167997142Y-116101904D01*
X168044761Y-116054285D01*
X168092380Y-115959047D01*
X168092380Y-115768571D01*
X168044761Y-115673333D01*
X167997142Y-115625714D01*
X167901904Y-115578095D01*
X167663809Y-115578095D01*
X167568571Y-115625714D01*
X167520952Y-115673333D01*
X167473333Y-115768571D01*
X167473333Y-115959047D01*
X167520952Y-116054285D01*
X167568571Y-116101904D01*
X167663809Y-116149523D01*
%TO.C,R15*%
X168092380Y-84462857D02*
X167616190Y-84796190D01*
X168092380Y-85034285D02*
X167092380Y-85034285D01*
X167092380Y-84653333D01*
X167140000Y-84558095D01*
X167187619Y-84510476D01*
X167282857Y-84462857D01*
X167425714Y-84462857D01*
X167520952Y-84510476D01*
X167568571Y-84558095D01*
X167616190Y-84653333D01*
X167616190Y-85034285D01*
X168092380Y-83510476D02*
X168092380Y-84081904D01*
X168092380Y-83796190D02*
X167092380Y-83796190D01*
X167235238Y-83891428D01*
X167330476Y-83986666D01*
X167378095Y-84081904D01*
X167092380Y-82605714D02*
X167092380Y-83081904D01*
X167568571Y-83129523D01*
X167520952Y-83081904D01*
X167473333Y-82986666D01*
X167473333Y-82748571D01*
X167520952Y-82653333D01*
X167568571Y-82605714D01*
X167663809Y-82558095D01*
X167901904Y-82558095D01*
X167997142Y-82605714D01*
X168044761Y-82653333D01*
X168092380Y-82748571D01*
X168092380Y-82986666D01*
X168044761Y-83081904D01*
X167997142Y-83129523D01*
%TO.C,R14*%
X163012380Y-117482857D02*
X162536190Y-117816190D01*
X163012380Y-118054285D02*
X162012380Y-118054285D01*
X162012380Y-117673333D01*
X162060000Y-117578095D01*
X162107619Y-117530476D01*
X162202857Y-117482857D01*
X162345714Y-117482857D01*
X162440952Y-117530476D01*
X162488571Y-117578095D01*
X162536190Y-117673333D01*
X162536190Y-118054285D01*
X163012380Y-116530476D02*
X163012380Y-117101904D01*
X163012380Y-116816190D02*
X162012380Y-116816190D01*
X162155238Y-116911428D01*
X162250476Y-117006666D01*
X162298095Y-117101904D01*
X162345714Y-115673333D02*
X163012380Y-115673333D01*
X161964761Y-115911428D02*
X162679047Y-116149523D01*
X162679047Y-115530476D01*
%TO.C,R13*%
X163012380Y-84462857D02*
X162536190Y-84796190D01*
X163012380Y-85034285D02*
X162012380Y-85034285D01*
X162012380Y-84653333D01*
X162060000Y-84558095D01*
X162107619Y-84510476D01*
X162202857Y-84462857D01*
X162345714Y-84462857D01*
X162440952Y-84510476D01*
X162488571Y-84558095D01*
X162536190Y-84653333D01*
X162536190Y-85034285D01*
X163012380Y-83510476D02*
X163012380Y-84081904D01*
X163012380Y-83796190D02*
X162012380Y-83796190D01*
X162155238Y-83891428D01*
X162250476Y-83986666D01*
X162298095Y-84081904D01*
X162012380Y-83177142D02*
X162012380Y-82558095D01*
X162393333Y-82891428D01*
X162393333Y-82748571D01*
X162440952Y-82653333D01*
X162488571Y-82605714D01*
X162583809Y-82558095D01*
X162821904Y-82558095D01*
X162917142Y-82605714D01*
X162964761Y-82653333D01*
X163012380Y-82748571D01*
X163012380Y-83034285D01*
X162964761Y-83129523D01*
X162917142Y-83177142D01*
%TO.C,R12*%
X157932380Y-117482857D02*
X157456190Y-117816190D01*
X157932380Y-118054285D02*
X156932380Y-118054285D01*
X156932380Y-117673333D01*
X156980000Y-117578095D01*
X157027619Y-117530476D01*
X157122857Y-117482857D01*
X157265714Y-117482857D01*
X157360952Y-117530476D01*
X157408571Y-117578095D01*
X157456190Y-117673333D01*
X157456190Y-118054285D01*
X157932380Y-116530476D02*
X157932380Y-117101904D01*
X157932380Y-116816190D02*
X156932380Y-116816190D01*
X157075238Y-116911428D01*
X157170476Y-117006666D01*
X157218095Y-117101904D01*
X157027619Y-116149523D02*
X156980000Y-116101904D01*
X156932380Y-116006666D01*
X156932380Y-115768571D01*
X156980000Y-115673333D01*
X157027619Y-115625714D01*
X157122857Y-115578095D01*
X157218095Y-115578095D01*
X157360952Y-115625714D01*
X157932380Y-116197142D01*
X157932380Y-115578095D01*
%TO.C,R11*%
X157932380Y-84462857D02*
X157456190Y-84796190D01*
X157932380Y-85034285D02*
X156932380Y-85034285D01*
X156932380Y-84653333D01*
X156980000Y-84558095D01*
X157027619Y-84510476D01*
X157122857Y-84462857D01*
X157265714Y-84462857D01*
X157360952Y-84510476D01*
X157408571Y-84558095D01*
X157456190Y-84653333D01*
X157456190Y-85034285D01*
X157932380Y-83510476D02*
X157932380Y-84081904D01*
X157932380Y-83796190D02*
X156932380Y-83796190D01*
X157075238Y-83891428D01*
X157170476Y-83986666D01*
X157218095Y-84081904D01*
X157932380Y-82558095D02*
X157932380Y-83129523D01*
X157932380Y-82843809D02*
X156932380Y-82843809D01*
X157075238Y-82939047D01*
X157170476Y-83034285D01*
X157218095Y-83129523D01*
%TO.C,R10*%
X152852380Y-117482857D02*
X152376190Y-117816190D01*
X152852380Y-118054285D02*
X151852380Y-118054285D01*
X151852380Y-117673333D01*
X151900000Y-117578095D01*
X151947619Y-117530476D01*
X152042857Y-117482857D01*
X152185714Y-117482857D01*
X152280952Y-117530476D01*
X152328571Y-117578095D01*
X152376190Y-117673333D01*
X152376190Y-118054285D01*
X152852380Y-116530476D02*
X152852380Y-117101904D01*
X152852380Y-116816190D02*
X151852380Y-116816190D01*
X151995238Y-116911428D01*
X152090476Y-117006666D01*
X152138095Y-117101904D01*
X151852380Y-115911428D02*
X151852380Y-115816190D01*
X151900000Y-115720952D01*
X151947619Y-115673333D01*
X152042857Y-115625714D01*
X152233333Y-115578095D01*
X152471428Y-115578095D01*
X152661904Y-115625714D01*
X152757142Y-115673333D01*
X152804761Y-115720952D01*
X152852380Y-115816190D01*
X152852380Y-115911428D01*
X152804761Y-116006666D01*
X152757142Y-116054285D01*
X152661904Y-116101904D01*
X152471428Y-116149523D01*
X152233333Y-116149523D01*
X152042857Y-116101904D01*
X151947619Y-116054285D01*
X151900000Y-116006666D01*
X151852380Y-115911428D01*
%TO.C,R9*%
X152852380Y-84462857D02*
X152376190Y-84796191D01*
X152852380Y-85034286D02*
X151852380Y-85034286D01*
X151852380Y-84653333D01*
X151900000Y-84558095D01*
X151947619Y-84510476D01*
X152042857Y-84462857D01*
X152185714Y-84462857D01*
X152280952Y-84510476D01*
X152328571Y-84558095D01*
X152376190Y-84653333D01*
X152376190Y-85034286D01*
X152852380Y-83986667D02*
X152852380Y-83796191D01*
X152804761Y-83700952D01*
X152757142Y-83653333D01*
X152614285Y-83558095D01*
X152423809Y-83510476D01*
X152042857Y-83510476D01*
X151947619Y-83558095D01*
X151900000Y-83605714D01*
X151852380Y-83700952D01*
X151852380Y-83891429D01*
X151900000Y-83986667D01*
X151947619Y-84034286D01*
X152042857Y-84081905D01*
X152280952Y-84081905D01*
X152376190Y-84034286D01*
X152423809Y-83986667D01*
X152471428Y-83891429D01*
X152471428Y-83700952D01*
X152423809Y-83605714D01*
X152376190Y-83558095D01*
X152280952Y-83510476D01*
%TO.C,R8*%
X147772380Y-117482857D02*
X147296190Y-117816191D01*
X147772380Y-118054286D02*
X146772380Y-118054286D01*
X146772380Y-117673333D01*
X146820000Y-117578095D01*
X146867619Y-117530476D01*
X146962857Y-117482857D01*
X147105714Y-117482857D01*
X147200952Y-117530476D01*
X147248571Y-117578095D01*
X147296190Y-117673333D01*
X147296190Y-118054286D01*
X147200952Y-116911429D02*
X147153333Y-117006667D01*
X147105714Y-117054286D01*
X147010476Y-117101905D01*
X146962857Y-117101905D01*
X146867619Y-117054286D01*
X146820000Y-117006667D01*
X146772380Y-116911429D01*
X146772380Y-116720952D01*
X146820000Y-116625714D01*
X146867619Y-116578095D01*
X146962857Y-116530476D01*
X147010476Y-116530476D01*
X147105714Y-116578095D01*
X147153333Y-116625714D01*
X147200952Y-116720952D01*
X147200952Y-116911429D01*
X147248571Y-117006667D01*
X147296190Y-117054286D01*
X147391428Y-117101905D01*
X147581904Y-117101905D01*
X147677142Y-117054286D01*
X147724761Y-117006667D01*
X147772380Y-116911429D01*
X147772380Y-116720952D01*
X147724761Y-116625714D01*
X147677142Y-116578095D01*
X147581904Y-116530476D01*
X147391428Y-116530476D01*
X147296190Y-116578095D01*
X147248571Y-116625714D01*
X147200952Y-116720952D01*
%TO.C,R7*%
X147772380Y-84462857D02*
X147296190Y-84796191D01*
X147772380Y-85034286D02*
X146772380Y-85034286D01*
X146772380Y-84653333D01*
X146820000Y-84558095D01*
X146867619Y-84510476D01*
X146962857Y-84462857D01*
X147105714Y-84462857D01*
X147200952Y-84510476D01*
X147248571Y-84558095D01*
X147296190Y-84653333D01*
X147296190Y-85034286D01*
X146772380Y-84129524D02*
X146772380Y-83462857D01*
X147772380Y-83891429D01*
%TO.C,R6*%
X142692380Y-117482857D02*
X142216190Y-117816191D01*
X142692380Y-118054286D02*
X141692380Y-118054286D01*
X141692380Y-117673333D01*
X141740000Y-117578095D01*
X141787619Y-117530476D01*
X141882857Y-117482857D01*
X142025714Y-117482857D01*
X142120952Y-117530476D01*
X142168571Y-117578095D01*
X142216190Y-117673333D01*
X142216190Y-118054286D01*
X141692380Y-116625714D02*
X141692380Y-116816191D01*
X141740000Y-116911429D01*
X141787619Y-116959048D01*
X141930476Y-117054286D01*
X142120952Y-117101905D01*
X142501904Y-117101905D01*
X142597142Y-117054286D01*
X142644761Y-117006667D01*
X142692380Y-116911429D01*
X142692380Y-116720952D01*
X142644761Y-116625714D01*
X142597142Y-116578095D01*
X142501904Y-116530476D01*
X142263809Y-116530476D01*
X142168571Y-116578095D01*
X142120952Y-116625714D01*
X142073333Y-116720952D01*
X142073333Y-116911429D01*
X142120952Y-117006667D01*
X142168571Y-117054286D01*
X142263809Y-117101905D01*
%TO.C,R5*%
X142692380Y-84462857D02*
X142216190Y-84796191D01*
X142692380Y-85034286D02*
X141692380Y-85034286D01*
X141692380Y-84653333D01*
X141740000Y-84558095D01*
X141787619Y-84510476D01*
X141882857Y-84462857D01*
X142025714Y-84462857D01*
X142120952Y-84510476D01*
X142168571Y-84558095D01*
X142216190Y-84653333D01*
X142216190Y-85034286D01*
X141692380Y-83558095D02*
X141692380Y-84034286D01*
X142168571Y-84081905D01*
X142120952Y-84034286D01*
X142073333Y-83939048D01*
X142073333Y-83700952D01*
X142120952Y-83605714D01*
X142168571Y-83558095D01*
X142263809Y-83510476D01*
X142501904Y-83510476D01*
X142597142Y-83558095D01*
X142644761Y-83605714D01*
X142692380Y-83700952D01*
X142692380Y-83939048D01*
X142644761Y-84034286D01*
X142597142Y-84081905D01*
%TO.C,R4*%
X137612380Y-117482857D02*
X137136190Y-117816191D01*
X137612380Y-118054286D02*
X136612380Y-118054286D01*
X136612380Y-117673333D01*
X136660000Y-117578095D01*
X136707619Y-117530476D01*
X136802857Y-117482857D01*
X136945714Y-117482857D01*
X137040952Y-117530476D01*
X137088571Y-117578095D01*
X137136190Y-117673333D01*
X137136190Y-118054286D01*
X136945714Y-116625714D02*
X137612380Y-116625714D01*
X136564761Y-116863810D02*
X137279047Y-117101905D01*
X137279047Y-116482857D01*
%TO.C,R3*%
X137612380Y-84462857D02*
X137136190Y-84796191D01*
X137612380Y-85034286D02*
X136612380Y-85034286D01*
X136612380Y-84653333D01*
X136660000Y-84558095D01*
X136707619Y-84510476D01*
X136802857Y-84462857D01*
X136945714Y-84462857D01*
X137040952Y-84510476D01*
X137088571Y-84558095D01*
X137136190Y-84653333D01*
X137136190Y-85034286D01*
X136612380Y-84129524D02*
X136612380Y-83510476D01*
X136993333Y-83843810D01*
X136993333Y-83700952D01*
X137040952Y-83605714D01*
X137088571Y-83558095D01*
X137183809Y-83510476D01*
X137421904Y-83510476D01*
X137517142Y-83558095D01*
X137564761Y-83605714D01*
X137612380Y-83700952D01*
X137612380Y-83986667D01*
X137564761Y-84081905D01*
X137517142Y-84129524D01*
%TO.C,R2*%
X132532380Y-117482857D02*
X132056190Y-117816191D01*
X132532380Y-118054286D02*
X131532380Y-118054286D01*
X131532380Y-117673333D01*
X131580000Y-117578095D01*
X131627619Y-117530476D01*
X131722857Y-117482857D01*
X131865714Y-117482857D01*
X131960952Y-117530476D01*
X132008571Y-117578095D01*
X132056190Y-117673333D01*
X132056190Y-118054286D01*
X131627619Y-117101905D02*
X131580000Y-117054286D01*
X131532380Y-116959048D01*
X131532380Y-116720952D01*
X131580000Y-116625714D01*
X131627619Y-116578095D01*
X131722857Y-116530476D01*
X131818095Y-116530476D01*
X131960952Y-116578095D01*
X132532380Y-117149524D01*
X132532380Y-116530476D01*
%TO.C,R1*%
X132532380Y-84462857D02*
X132056190Y-84796191D01*
X132532380Y-85034286D02*
X131532380Y-85034286D01*
X131532380Y-84653333D01*
X131580000Y-84558095D01*
X131627619Y-84510476D01*
X131722857Y-84462857D01*
X131865714Y-84462857D01*
X131960952Y-84510476D01*
X132008571Y-84558095D01*
X132056190Y-84653333D01*
X132056190Y-85034286D01*
X132532380Y-83510476D02*
X132532380Y-84081905D01*
X132532380Y-83796191D02*
X131532380Y-83796191D01*
X131675238Y-83891429D01*
X131770476Y-83986667D01*
X131818095Y-84081905D01*
%TO.C,Q16*%
X134048571Y-119927619D02*
X133953333Y-119880000D01*
X133858095Y-119784761D01*
X133715238Y-119641904D01*
X133620000Y-119594285D01*
X133524761Y-119594285D01*
X133572380Y-119832380D02*
X133477142Y-119784761D01*
X133381904Y-119689523D01*
X133334285Y-119499047D01*
X133334285Y-119165714D01*
X133381904Y-118975238D01*
X133477142Y-118880000D01*
X133572380Y-118832380D01*
X133762857Y-118832380D01*
X133858095Y-118880000D01*
X133953333Y-118975238D01*
X134000952Y-119165714D01*
X134000952Y-119499047D01*
X133953333Y-119689523D01*
X133858095Y-119784761D01*
X133762857Y-119832380D01*
X133572380Y-119832380D01*
X134953333Y-119832380D02*
X134381904Y-119832380D01*
X134667619Y-119832380D02*
X134667619Y-118832380D01*
X134572380Y-118975238D01*
X134477142Y-119070476D01*
X134381904Y-119118095D01*
X135810476Y-118832380D02*
X135620000Y-118832380D01*
X135524761Y-118880000D01*
X135477142Y-118927619D01*
X135381904Y-119070476D01*
X135334285Y-119260952D01*
X135334285Y-119641904D01*
X135381904Y-119737142D01*
X135429523Y-119784761D01*
X135524761Y-119832380D01*
X135715238Y-119832380D01*
X135810476Y-119784761D01*
X135858095Y-119737142D01*
X135905714Y-119641904D01*
X135905714Y-119403809D01*
X135858095Y-119308571D01*
X135810476Y-119260952D01*
X135715238Y-119213333D01*
X135524761Y-119213333D01*
X135429523Y-119260952D01*
X135381904Y-119308571D01*
X135334285Y-119403809D01*
%TO.C,Q15*%
X154368571Y-119927619D02*
X154273333Y-119880000D01*
X154178095Y-119784761D01*
X154035238Y-119641904D01*
X153940000Y-119594285D01*
X153844761Y-119594285D01*
X153892380Y-119832380D02*
X153797142Y-119784761D01*
X153701904Y-119689523D01*
X153654285Y-119499047D01*
X153654285Y-119165714D01*
X153701904Y-118975238D01*
X153797142Y-118880000D01*
X153892380Y-118832380D01*
X154082857Y-118832380D01*
X154178095Y-118880000D01*
X154273333Y-118975238D01*
X154320952Y-119165714D01*
X154320952Y-119499047D01*
X154273333Y-119689523D01*
X154178095Y-119784761D01*
X154082857Y-119832380D01*
X153892380Y-119832380D01*
X155273333Y-119832380D02*
X154701904Y-119832380D01*
X154987619Y-119832380D02*
X154987619Y-118832380D01*
X154892380Y-118975238D01*
X154797142Y-119070476D01*
X154701904Y-119118095D01*
X156178095Y-118832380D02*
X155701904Y-118832380D01*
X155654285Y-119308571D01*
X155701904Y-119260952D01*
X155797142Y-119213333D01*
X156035238Y-119213333D01*
X156130476Y-119260952D01*
X156178095Y-119308571D01*
X156225714Y-119403809D01*
X156225714Y-119641904D01*
X156178095Y-119737142D01*
X156130476Y-119784761D01*
X156035238Y-119832380D01*
X155797142Y-119832380D01*
X155701904Y-119784761D01*
X155654285Y-119737142D01*
%TO.C,Q14*%
X134048571Y-81192619D02*
X133953333Y-81145000D01*
X133858095Y-81049761D01*
X133715238Y-80906904D01*
X133620000Y-80859285D01*
X133524761Y-80859285D01*
X133572380Y-81097380D02*
X133477142Y-81049761D01*
X133381904Y-80954523D01*
X133334285Y-80764047D01*
X133334285Y-80430714D01*
X133381904Y-80240238D01*
X133477142Y-80145000D01*
X133572380Y-80097380D01*
X133762857Y-80097380D01*
X133858095Y-80145000D01*
X133953333Y-80240238D01*
X134000952Y-80430714D01*
X134000952Y-80764047D01*
X133953333Y-80954523D01*
X133858095Y-81049761D01*
X133762857Y-81097380D01*
X133572380Y-81097380D01*
X134953333Y-81097380D02*
X134381904Y-81097380D01*
X134667619Y-81097380D02*
X134667619Y-80097380D01*
X134572380Y-80240238D01*
X134477142Y-80335476D01*
X134381904Y-80383095D01*
X135810476Y-80430714D02*
X135810476Y-81097380D01*
X135572380Y-80049761D02*
X135334285Y-80764047D01*
X135953333Y-80764047D01*
%TO.C,Q13*%
X154368571Y-81192619D02*
X154273333Y-81145000D01*
X154178095Y-81049761D01*
X154035238Y-80906904D01*
X153940000Y-80859285D01*
X153844761Y-80859285D01*
X153892380Y-81097380D02*
X153797142Y-81049761D01*
X153701904Y-80954523D01*
X153654285Y-80764047D01*
X153654285Y-80430714D01*
X153701904Y-80240238D01*
X153797142Y-80145000D01*
X153892380Y-80097380D01*
X154082857Y-80097380D01*
X154178095Y-80145000D01*
X154273333Y-80240238D01*
X154320952Y-80430714D01*
X154320952Y-80764047D01*
X154273333Y-80954523D01*
X154178095Y-81049761D01*
X154082857Y-81097380D01*
X153892380Y-81097380D01*
X155273333Y-81097380D02*
X154701904Y-81097380D01*
X154987619Y-81097380D02*
X154987619Y-80097380D01*
X154892380Y-80240238D01*
X154797142Y-80335476D01*
X154701904Y-80383095D01*
X155606666Y-80097380D02*
X156225714Y-80097380D01*
X155892380Y-80478333D01*
X156035238Y-80478333D01*
X156130476Y-80525952D01*
X156178095Y-80573571D01*
X156225714Y-80668809D01*
X156225714Y-80906904D01*
X156178095Y-81002142D01*
X156130476Y-81049761D01*
X156035238Y-81097380D01*
X155749523Y-81097380D01*
X155654285Y-81049761D01*
X155606666Y-81002142D01*
%TO.C,Q12*%
X139128571Y-119927619D02*
X139033333Y-119880000D01*
X138938095Y-119784761D01*
X138795238Y-119641904D01*
X138700000Y-119594285D01*
X138604761Y-119594285D01*
X138652380Y-119832380D02*
X138557142Y-119784761D01*
X138461904Y-119689523D01*
X138414285Y-119499047D01*
X138414285Y-119165714D01*
X138461904Y-118975238D01*
X138557142Y-118880000D01*
X138652380Y-118832380D01*
X138842857Y-118832380D01*
X138938095Y-118880000D01*
X139033333Y-118975238D01*
X139080952Y-119165714D01*
X139080952Y-119499047D01*
X139033333Y-119689523D01*
X138938095Y-119784761D01*
X138842857Y-119832380D01*
X138652380Y-119832380D01*
X140033333Y-119832380D02*
X139461904Y-119832380D01*
X139747619Y-119832380D02*
X139747619Y-118832380D01*
X139652380Y-118975238D01*
X139557142Y-119070476D01*
X139461904Y-119118095D01*
X140414285Y-118927619D02*
X140461904Y-118880000D01*
X140557142Y-118832380D01*
X140795238Y-118832380D01*
X140890476Y-118880000D01*
X140938095Y-118927619D01*
X140985714Y-119022857D01*
X140985714Y-119118095D01*
X140938095Y-119260952D01*
X140366666Y-119832380D01*
X140985714Y-119832380D01*
%TO.C,Q11*%
X159448571Y-119927619D02*
X159353333Y-119880000D01*
X159258095Y-119784761D01*
X159115238Y-119641904D01*
X159020000Y-119594285D01*
X158924761Y-119594285D01*
X158972380Y-119832380D02*
X158877142Y-119784761D01*
X158781904Y-119689523D01*
X158734285Y-119499047D01*
X158734285Y-119165714D01*
X158781904Y-118975238D01*
X158877142Y-118880000D01*
X158972380Y-118832380D01*
X159162857Y-118832380D01*
X159258095Y-118880000D01*
X159353333Y-118975238D01*
X159400952Y-119165714D01*
X159400952Y-119499047D01*
X159353333Y-119689523D01*
X159258095Y-119784761D01*
X159162857Y-119832380D01*
X158972380Y-119832380D01*
X160353333Y-119832380D02*
X159781904Y-119832380D01*
X160067619Y-119832380D02*
X160067619Y-118832380D01*
X159972380Y-118975238D01*
X159877142Y-119070476D01*
X159781904Y-119118095D01*
X161305714Y-119832380D02*
X160734285Y-119832380D01*
X161020000Y-119832380D02*
X161020000Y-118832380D01*
X160924761Y-118975238D01*
X160829523Y-119070476D01*
X160734285Y-119118095D01*
%TO.C,Q10*%
X139128571Y-81192619D02*
X139033333Y-81145000D01*
X138938095Y-81049761D01*
X138795238Y-80906904D01*
X138700000Y-80859285D01*
X138604761Y-80859285D01*
X138652380Y-81097380D02*
X138557142Y-81049761D01*
X138461904Y-80954523D01*
X138414285Y-80764047D01*
X138414285Y-80430714D01*
X138461904Y-80240238D01*
X138557142Y-80145000D01*
X138652380Y-80097380D01*
X138842857Y-80097380D01*
X138938095Y-80145000D01*
X139033333Y-80240238D01*
X139080952Y-80430714D01*
X139080952Y-80764047D01*
X139033333Y-80954523D01*
X138938095Y-81049761D01*
X138842857Y-81097380D01*
X138652380Y-81097380D01*
X140033333Y-81097380D02*
X139461904Y-81097380D01*
X139747619Y-81097380D02*
X139747619Y-80097380D01*
X139652380Y-80240238D01*
X139557142Y-80335476D01*
X139461904Y-80383095D01*
X140652380Y-80097380D02*
X140747619Y-80097380D01*
X140842857Y-80145000D01*
X140890476Y-80192619D01*
X140938095Y-80287857D01*
X140985714Y-80478333D01*
X140985714Y-80716428D01*
X140938095Y-80906904D01*
X140890476Y-81002142D01*
X140842857Y-81049761D01*
X140747619Y-81097380D01*
X140652380Y-81097380D01*
X140557142Y-81049761D01*
X140509523Y-81002142D01*
X140461904Y-80906904D01*
X140414285Y-80716428D01*
X140414285Y-80478333D01*
X140461904Y-80287857D01*
X140509523Y-80192619D01*
X140557142Y-80145000D01*
X140652380Y-80097380D01*
%TO.C,Q9*%
X159924761Y-81192619D02*
X159829523Y-81145000D01*
X159734285Y-81049761D01*
X159591428Y-80906904D01*
X159496190Y-80859285D01*
X159400952Y-80859285D01*
X159448571Y-81097380D02*
X159353333Y-81049761D01*
X159258095Y-80954523D01*
X159210476Y-80764047D01*
X159210476Y-80430714D01*
X159258095Y-80240238D01*
X159353333Y-80145000D01*
X159448571Y-80097380D01*
X159639047Y-80097380D01*
X159734285Y-80145000D01*
X159829523Y-80240238D01*
X159877142Y-80430714D01*
X159877142Y-80764047D01*
X159829523Y-80954523D01*
X159734285Y-81049761D01*
X159639047Y-81097380D01*
X159448571Y-81097380D01*
X160353333Y-81097380D02*
X160543809Y-81097380D01*
X160639047Y-81049761D01*
X160686666Y-81002142D01*
X160781904Y-80859285D01*
X160829523Y-80668809D01*
X160829523Y-80287857D01*
X160781904Y-80192619D01*
X160734285Y-80145000D01*
X160639047Y-80097380D01*
X160448571Y-80097380D01*
X160353333Y-80145000D01*
X160305714Y-80192619D01*
X160258095Y-80287857D01*
X160258095Y-80525952D01*
X160305714Y-80621190D01*
X160353333Y-80668809D01*
X160448571Y-80716428D01*
X160639047Y-80716428D01*
X160734285Y-80668809D01*
X160781904Y-80621190D01*
X160829523Y-80525952D01*
%TO.C,Q8*%
X144684761Y-119927619D02*
X144589523Y-119880000D01*
X144494285Y-119784761D01*
X144351428Y-119641904D01*
X144256190Y-119594285D01*
X144160952Y-119594285D01*
X144208571Y-119832380D02*
X144113333Y-119784761D01*
X144018095Y-119689523D01*
X143970476Y-119499047D01*
X143970476Y-119165714D01*
X144018095Y-118975238D01*
X144113333Y-118880000D01*
X144208571Y-118832380D01*
X144399047Y-118832380D01*
X144494285Y-118880000D01*
X144589523Y-118975238D01*
X144637142Y-119165714D01*
X144637142Y-119499047D01*
X144589523Y-119689523D01*
X144494285Y-119784761D01*
X144399047Y-119832380D01*
X144208571Y-119832380D01*
X145208571Y-119260952D02*
X145113333Y-119213333D01*
X145065714Y-119165714D01*
X145018095Y-119070476D01*
X145018095Y-119022857D01*
X145065714Y-118927619D01*
X145113333Y-118880000D01*
X145208571Y-118832380D01*
X145399047Y-118832380D01*
X145494285Y-118880000D01*
X145541904Y-118927619D01*
X145589523Y-119022857D01*
X145589523Y-119070476D01*
X145541904Y-119165714D01*
X145494285Y-119213333D01*
X145399047Y-119260952D01*
X145208571Y-119260952D01*
X145113333Y-119308571D01*
X145065714Y-119356190D01*
X145018095Y-119451428D01*
X145018095Y-119641904D01*
X145065714Y-119737142D01*
X145113333Y-119784761D01*
X145208571Y-119832380D01*
X145399047Y-119832380D01*
X145494285Y-119784761D01*
X145541904Y-119737142D01*
X145589523Y-119641904D01*
X145589523Y-119451428D01*
X145541904Y-119356190D01*
X145494285Y-119308571D01*
X145399047Y-119260952D01*
%TO.C,Q7*%
X165004761Y-119927619D02*
X164909523Y-119880000D01*
X164814285Y-119784761D01*
X164671428Y-119641904D01*
X164576190Y-119594285D01*
X164480952Y-119594285D01*
X164528571Y-119832380D02*
X164433333Y-119784761D01*
X164338095Y-119689523D01*
X164290476Y-119499047D01*
X164290476Y-119165714D01*
X164338095Y-118975238D01*
X164433333Y-118880000D01*
X164528571Y-118832380D01*
X164719047Y-118832380D01*
X164814285Y-118880000D01*
X164909523Y-118975238D01*
X164957142Y-119165714D01*
X164957142Y-119499047D01*
X164909523Y-119689523D01*
X164814285Y-119784761D01*
X164719047Y-119832380D01*
X164528571Y-119832380D01*
X165290476Y-118832380D02*
X165957142Y-118832380D01*
X165528571Y-119832380D01*
%TO.C,Q6*%
X144684761Y-81192619D02*
X144589523Y-81145000D01*
X144494285Y-81049761D01*
X144351428Y-80906904D01*
X144256190Y-80859285D01*
X144160952Y-80859285D01*
X144208571Y-81097380D02*
X144113333Y-81049761D01*
X144018095Y-80954523D01*
X143970476Y-80764047D01*
X143970476Y-80430714D01*
X144018095Y-80240238D01*
X144113333Y-80145000D01*
X144208571Y-80097380D01*
X144399047Y-80097380D01*
X144494285Y-80145000D01*
X144589523Y-80240238D01*
X144637142Y-80430714D01*
X144637142Y-80764047D01*
X144589523Y-80954523D01*
X144494285Y-81049761D01*
X144399047Y-81097380D01*
X144208571Y-81097380D01*
X145494285Y-80097380D02*
X145303809Y-80097380D01*
X145208571Y-80145000D01*
X145160952Y-80192619D01*
X145065714Y-80335476D01*
X145018095Y-80525952D01*
X145018095Y-80906904D01*
X145065714Y-81002142D01*
X145113333Y-81049761D01*
X145208571Y-81097380D01*
X145399047Y-81097380D01*
X145494285Y-81049761D01*
X145541904Y-81002142D01*
X145589523Y-80906904D01*
X145589523Y-80668809D01*
X145541904Y-80573571D01*
X145494285Y-80525952D01*
X145399047Y-80478333D01*
X145208571Y-80478333D01*
X145113333Y-80525952D01*
X145065714Y-80573571D01*
X145018095Y-80668809D01*
%TO.C,Q5*%
X165004761Y-81192619D02*
X164909523Y-81145000D01*
X164814285Y-81049761D01*
X164671428Y-80906904D01*
X164576190Y-80859285D01*
X164480952Y-80859285D01*
X164528571Y-81097380D02*
X164433333Y-81049761D01*
X164338095Y-80954523D01*
X164290476Y-80764047D01*
X164290476Y-80430714D01*
X164338095Y-80240238D01*
X164433333Y-80145000D01*
X164528571Y-80097380D01*
X164719047Y-80097380D01*
X164814285Y-80145000D01*
X164909523Y-80240238D01*
X164957142Y-80430714D01*
X164957142Y-80764047D01*
X164909523Y-80954523D01*
X164814285Y-81049761D01*
X164719047Y-81097380D01*
X164528571Y-81097380D01*
X165861904Y-80097380D02*
X165385714Y-80097380D01*
X165338095Y-80573571D01*
X165385714Y-80525952D01*
X165480952Y-80478333D01*
X165719047Y-80478333D01*
X165814285Y-80525952D01*
X165861904Y-80573571D01*
X165909523Y-80668809D01*
X165909523Y-80906904D01*
X165861904Y-81002142D01*
X165814285Y-81049761D01*
X165719047Y-81097380D01*
X165480952Y-81097380D01*
X165385714Y-81049761D01*
X165338095Y-81002142D01*
%TO.C,Q4*%
X149764761Y-119927619D02*
X149669523Y-119880000D01*
X149574285Y-119784761D01*
X149431428Y-119641904D01*
X149336190Y-119594285D01*
X149240952Y-119594285D01*
X149288571Y-119832380D02*
X149193333Y-119784761D01*
X149098095Y-119689523D01*
X149050476Y-119499047D01*
X149050476Y-119165714D01*
X149098095Y-118975238D01*
X149193333Y-118880000D01*
X149288571Y-118832380D01*
X149479047Y-118832380D01*
X149574285Y-118880000D01*
X149669523Y-118975238D01*
X149717142Y-119165714D01*
X149717142Y-119499047D01*
X149669523Y-119689523D01*
X149574285Y-119784761D01*
X149479047Y-119832380D01*
X149288571Y-119832380D01*
X150574285Y-119165714D02*
X150574285Y-119832380D01*
X150336190Y-118784761D02*
X150098095Y-119499047D01*
X150717142Y-119499047D01*
%TO.C,Q3*%
X170084761Y-119927619D02*
X169989523Y-119880000D01*
X169894285Y-119784761D01*
X169751428Y-119641904D01*
X169656190Y-119594285D01*
X169560952Y-119594285D01*
X169608571Y-119832380D02*
X169513333Y-119784761D01*
X169418095Y-119689523D01*
X169370476Y-119499047D01*
X169370476Y-119165714D01*
X169418095Y-118975238D01*
X169513333Y-118880000D01*
X169608571Y-118832380D01*
X169799047Y-118832380D01*
X169894285Y-118880000D01*
X169989523Y-118975238D01*
X170037142Y-119165714D01*
X170037142Y-119499047D01*
X169989523Y-119689523D01*
X169894285Y-119784761D01*
X169799047Y-119832380D01*
X169608571Y-119832380D01*
X170370476Y-118832380D02*
X170989523Y-118832380D01*
X170656190Y-119213333D01*
X170799047Y-119213333D01*
X170894285Y-119260952D01*
X170941904Y-119308571D01*
X170989523Y-119403809D01*
X170989523Y-119641904D01*
X170941904Y-119737142D01*
X170894285Y-119784761D01*
X170799047Y-119832380D01*
X170513333Y-119832380D01*
X170418095Y-119784761D01*
X170370476Y-119737142D01*
%TO.C,Q2*%
X149764761Y-81192619D02*
X149669523Y-81145000D01*
X149574285Y-81049761D01*
X149431428Y-80906904D01*
X149336190Y-80859285D01*
X149240952Y-80859285D01*
X149288571Y-81097380D02*
X149193333Y-81049761D01*
X149098095Y-80954523D01*
X149050476Y-80764047D01*
X149050476Y-80430714D01*
X149098095Y-80240238D01*
X149193333Y-80145000D01*
X149288571Y-80097380D01*
X149479047Y-80097380D01*
X149574285Y-80145000D01*
X149669523Y-80240238D01*
X149717142Y-80430714D01*
X149717142Y-80764047D01*
X149669523Y-80954523D01*
X149574285Y-81049761D01*
X149479047Y-81097380D01*
X149288571Y-81097380D01*
X150098095Y-80192619D02*
X150145714Y-80145000D01*
X150240952Y-80097380D01*
X150479047Y-80097380D01*
X150574285Y-80145000D01*
X150621904Y-80192619D01*
X150669523Y-80287857D01*
X150669523Y-80383095D01*
X150621904Y-80525952D01*
X150050476Y-81097380D01*
X150669523Y-81097380D01*
%TO.C,Q1*%
X170084761Y-81192619D02*
X169989523Y-81145000D01*
X169894285Y-81049761D01*
X169751428Y-80906904D01*
X169656190Y-80859285D01*
X169560952Y-80859285D01*
X169608571Y-81097380D02*
X169513333Y-81049761D01*
X169418095Y-80954523D01*
X169370476Y-80764047D01*
X169370476Y-80430714D01*
X169418095Y-80240238D01*
X169513333Y-80145000D01*
X169608571Y-80097380D01*
X169799047Y-80097380D01*
X169894285Y-80145000D01*
X169989523Y-80240238D01*
X170037142Y-80430714D01*
X170037142Y-80764047D01*
X169989523Y-80954523D01*
X169894285Y-81049761D01*
X169799047Y-81097380D01*
X169608571Y-81097380D01*
X170989523Y-81097380D02*
X170418095Y-81097380D01*
X170703809Y-81097380D02*
X170703809Y-80097380D01*
X170608571Y-80240238D01*
X170513333Y-80335476D01*
X170418095Y-80383095D01*
%TO.C,A1*%
X128436666Y-101044285D02*
X128436666Y-100568095D01*
X128722380Y-101139523D02*
X127722380Y-100806190D01*
X128722380Y-100472857D01*
X128722380Y-99615714D02*
X128722380Y-100187142D01*
X128722380Y-99901428D02*
X127722380Y-99901428D01*
X127865238Y-99996666D01*
X127960476Y-100091904D01*
X128008095Y-100187142D01*
%TD*%
M02*
