%TF.GenerationSoftware,KiCad,Pcbnew,(5.1.6)-1*%
%TF.CreationDate,2022-02-03T11:07:05+01:00*%
%TF.ProjectId,Omniplex,4f6d6e69-706c-4657-982e-6b696361645f,rev?*%
%TF.SameCoordinates,Original*%
%TF.FileFunction,Paste,Top*%
%TF.FilePolarity,Positive*%
%FSLAX46Y46*%
G04 Gerber Fmt 4.6, Leading zero omitted, Abs format (unit mm)*
G04 Created by KiCad (PCBNEW (5.1.6)-1) date 2022-02-03 11:07:05*
%MOMM*%
%LPD*%
G01*
G04 APERTURE LIST*
%ADD10R,0.800000X0.900000*%
G04 APERTURE END LIST*
%TO.C,D16*%
G36*
G01*
X118507500Y-119730000D02*
X118982500Y-119730000D01*
G75*
G02*
X119220000Y-119967500I0J-237500D01*
G01*
X119220000Y-120542500D01*
G75*
G02*
X118982500Y-120780000I-237500J0D01*
G01*
X118507500Y-120780000D01*
G75*
G02*
X118270000Y-120542500I0J237500D01*
G01*
X118270000Y-119967500D01*
G75*
G02*
X118507500Y-119730000I237500J0D01*
G01*
G37*
G36*
G01*
X118507500Y-117980000D02*
X118982500Y-117980000D01*
G75*
G02*
X119220000Y-118217500I0J-237500D01*
G01*
X119220000Y-118792500D01*
G75*
G02*
X118982500Y-119030000I-237500J0D01*
G01*
X118507500Y-119030000D01*
G75*
G02*
X118270000Y-118792500I0J237500D01*
G01*
X118270000Y-118217500D01*
G75*
G02*
X118507500Y-117980000I237500J0D01*
G01*
G37*
%TD*%
%TO.C,D15*%
G36*
G01*
X110252500Y-119730000D02*
X110727500Y-119730000D01*
G75*
G02*
X110965000Y-119967500I0J-237500D01*
G01*
X110965000Y-120542500D01*
G75*
G02*
X110727500Y-120780000I-237500J0D01*
G01*
X110252500Y-120780000D01*
G75*
G02*
X110015000Y-120542500I0J237500D01*
G01*
X110015000Y-119967500D01*
G75*
G02*
X110252500Y-119730000I237500J0D01*
G01*
G37*
G36*
G01*
X110252500Y-117980000D02*
X110727500Y-117980000D01*
G75*
G02*
X110965000Y-118217500I0J-237500D01*
G01*
X110965000Y-118792500D01*
G75*
G02*
X110727500Y-119030000I-237500J0D01*
G01*
X110252500Y-119030000D01*
G75*
G02*
X110015000Y-118792500I0J237500D01*
G01*
X110015000Y-118217500D01*
G75*
G02*
X110252500Y-117980000I237500J0D01*
G01*
G37*
%TD*%
%TO.C,D14*%
G36*
G01*
X118507500Y-94330000D02*
X118982500Y-94330000D01*
G75*
G02*
X119220000Y-94567500I0J-237500D01*
G01*
X119220000Y-95142500D01*
G75*
G02*
X118982500Y-95380000I-237500J0D01*
G01*
X118507500Y-95380000D01*
G75*
G02*
X118270000Y-95142500I0J237500D01*
G01*
X118270000Y-94567500D01*
G75*
G02*
X118507500Y-94330000I237500J0D01*
G01*
G37*
G36*
G01*
X118507500Y-92580000D02*
X118982500Y-92580000D01*
G75*
G02*
X119220000Y-92817500I0J-237500D01*
G01*
X119220000Y-93392500D01*
G75*
G02*
X118982500Y-93630000I-237500J0D01*
G01*
X118507500Y-93630000D01*
G75*
G02*
X118270000Y-93392500I0J237500D01*
G01*
X118270000Y-92817500D01*
G75*
G02*
X118507500Y-92580000I237500J0D01*
G01*
G37*
%TD*%
%TO.C,D13*%
G36*
G01*
X110252500Y-94330000D02*
X110727500Y-94330000D01*
G75*
G02*
X110965000Y-94567500I0J-237500D01*
G01*
X110965000Y-95142500D01*
G75*
G02*
X110727500Y-95380000I-237500J0D01*
G01*
X110252500Y-95380000D01*
G75*
G02*
X110015000Y-95142500I0J237500D01*
G01*
X110015000Y-94567500D01*
G75*
G02*
X110252500Y-94330000I237500J0D01*
G01*
G37*
G36*
G01*
X110252500Y-92580000D02*
X110727500Y-92580000D01*
G75*
G02*
X110965000Y-92817500I0J-237500D01*
G01*
X110965000Y-93392500D01*
G75*
G02*
X110727500Y-93630000I-237500J0D01*
G01*
X110252500Y-93630000D01*
G75*
G02*
X110015000Y-93392500I0J237500D01*
G01*
X110015000Y-92817500D01*
G75*
G02*
X110252500Y-92580000I237500J0D01*
G01*
G37*
%TD*%
%TO.C,D12*%
G36*
G01*
X101997500Y-119730000D02*
X102472500Y-119730000D01*
G75*
G02*
X102710000Y-119967500I0J-237500D01*
G01*
X102710000Y-120542500D01*
G75*
G02*
X102472500Y-120780000I-237500J0D01*
G01*
X101997500Y-120780000D01*
G75*
G02*
X101760000Y-120542500I0J237500D01*
G01*
X101760000Y-119967500D01*
G75*
G02*
X101997500Y-119730000I237500J0D01*
G01*
G37*
G36*
G01*
X101997500Y-117980000D02*
X102472500Y-117980000D01*
G75*
G02*
X102710000Y-118217500I0J-237500D01*
G01*
X102710000Y-118792500D01*
G75*
G02*
X102472500Y-119030000I-237500J0D01*
G01*
X101997500Y-119030000D01*
G75*
G02*
X101760000Y-118792500I0J237500D01*
G01*
X101760000Y-118217500D01*
G75*
G02*
X101997500Y-117980000I237500J0D01*
G01*
G37*
%TD*%
%TO.C,D11*%
G36*
G01*
X93742500Y-119730000D02*
X94217500Y-119730000D01*
G75*
G02*
X94455000Y-119967500I0J-237500D01*
G01*
X94455000Y-120542500D01*
G75*
G02*
X94217500Y-120780000I-237500J0D01*
G01*
X93742500Y-120780000D01*
G75*
G02*
X93505000Y-120542500I0J237500D01*
G01*
X93505000Y-119967500D01*
G75*
G02*
X93742500Y-119730000I237500J0D01*
G01*
G37*
G36*
G01*
X93742500Y-117980000D02*
X94217500Y-117980000D01*
G75*
G02*
X94455000Y-118217500I0J-237500D01*
G01*
X94455000Y-118792500D01*
G75*
G02*
X94217500Y-119030000I-237500J0D01*
G01*
X93742500Y-119030000D01*
G75*
G02*
X93505000Y-118792500I0J237500D01*
G01*
X93505000Y-118217500D01*
G75*
G02*
X93742500Y-117980000I237500J0D01*
G01*
G37*
%TD*%
%TO.C,D10*%
G36*
G01*
X101997500Y-94330000D02*
X102472500Y-94330000D01*
G75*
G02*
X102710000Y-94567500I0J-237500D01*
G01*
X102710000Y-95142500D01*
G75*
G02*
X102472500Y-95380000I-237500J0D01*
G01*
X101997500Y-95380000D01*
G75*
G02*
X101760000Y-95142500I0J237500D01*
G01*
X101760000Y-94567500D01*
G75*
G02*
X101997500Y-94330000I237500J0D01*
G01*
G37*
G36*
G01*
X101997500Y-92580000D02*
X102472500Y-92580000D01*
G75*
G02*
X102710000Y-92817500I0J-237500D01*
G01*
X102710000Y-93392500D01*
G75*
G02*
X102472500Y-93630000I-237500J0D01*
G01*
X101997500Y-93630000D01*
G75*
G02*
X101760000Y-93392500I0J237500D01*
G01*
X101760000Y-92817500D01*
G75*
G02*
X101997500Y-92580000I237500J0D01*
G01*
G37*
%TD*%
%TO.C,D9*%
G36*
G01*
X93742500Y-94330000D02*
X94217500Y-94330000D01*
G75*
G02*
X94455000Y-94567500I0J-237500D01*
G01*
X94455000Y-95142500D01*
G75*
G02*
X94217500Y-95380000I-237500J0D01*
G01*
X93742500Y-95380000D01*
G75*
G02*
X93505000Y-95142500I0J237500D01*
G01*
X93505000Y-94567500D01*
G75*
G02*
X93742500Y-94330000I237500J0D01*
G01*
G37*
G36*
G01*
X93742500Y-92580000D02*
X94217500Y-92580000D01*
G75*
G02*
X94455000Y-92817500I0J-237500D01*
G01*
X94455000Y-93392500D01*
G75*
G02*
X94217500Y-93630000I-237500J0D01*
G01*
X93742500Y-93630000D01*
G75*
G02*
X93505000Y-93392500I0J237500D01*
G01*
X93505000Y-92817500D01*
G75*
G02*
X93742500Y-92580000I237500J0D01*
G01*
G37*
%TD*%
%TO.C,D8*%
G36*
G01*
X85487500Y-119730000D02*
X85962500Y-119730000D01*
G75*
G02*
X86200000Y-119967500I0J-237500D01*
G01*
X86200000Y-120542500D01*
G75*
G02*
X85962500Y-120780000I-237500J0D01*
G01*
X85487500Y-120780000D01*
G75*
G02*
X85250000Y-120542500I0J237500D01*
G01*
X85250000Y-119967500D01*
G75*
G02*
X85487500Y-119730000I237500J0D01*
G01*
G37*
G36*
G01*
X85487500Y-117980000D02*
X85962500Y-117980000D01*
G75*
G02*
X86200000Y-118217500I0J-237500D01*
G01*
X86200000Y-118792500D01*
G75*
G02*
X85962500Y-119030000I-237500J0D01*
G01*
X85487500Y-119030000D01*
G75*
G02*
X85250000Y-118792500I0J237500D01*
G01*
X85250000Y-118217500D01*
G75*
G02*
X85487500Y-117980000I237500J0D01*
G01*
G37*
%TD*%
%TO.C,D7*%
G36*
G01*
X77232500Y-119730000D02*
X77707500Y-119730000D01*
G75*
G02*
X77945000Y-119967500I0J-237500D01*
G01*
X77945000Y-120542500D01*
G75*
G02*
X77707500Y-120780000I-237500J0D01*
G01*
X77232500Y-120780000D01*
G75*
G02*
X76995000Y-120542500I0J237500D01*
G01*
X76995000Y-119967500D01*
G75*
G02*
X77232500Y-119730000I237500J0D01*
G01*
G37*
G36*
G01*
X77232500Y-117980000D02*
X77707500Y-117980000D01*
G75*
G02*
X77945000Y-118217500I0J-237500D01*
G01*
X77945000Y-118792500D01*
G75*
G02*
X77707500Y-119030000I-237500J0D01*
G01*
X77232500Y-119030000D01*
G75*
G02*
X76995000Y-118792500I0J237500D01*
G01*
X76995000Y-118217500D01*
G75*
G02*
X77232500Y-117980000I237500J0D01*
G01*
G37*
%TD*%
%TO.C,D6*%
G36*
G01*
X85487500Y-94330000D02*
X85962500Y-94330000D01*
G75*
G02*
X86200000Y-94567500I0J-237500D01*
G01*
X86200000Y-95142500D01*
G75*
G02*
X85962500Y-95380000I-237500J0D01*
G01*
X85487500Y-95380000D01*
G75*
G02*
X85250000Y-95142500I0J237500D01*
G01*
X85250000Y-94567500D01*
G75*
G02*
X85487500Y-94330000I237500J0D01*
G01*
G37*
G36*
G01*
X85487500Y-92580000D02*
X85962500Y-92580000D01*
G75*
G02*
X86200000Y-92817500I0J-237500D01*
G01*
X86200000Y-93392500D01*
G75*
G02*
X85962500Y-93630000I-237500J0D01*
G01*
X85487500Y-93630000D01*
G75*
G02*
X85250000Y-93392500I0J237500D01*
G01*
X85250000Y-92817500D01*
G75*
G02*
X85487500Y-92580000I237500J0D01*
G01*
G37*
%TD*%
%TO.C,D5*%
G36*
G01*
X77232500Y-94330000D02*
X77707500Y-94330000D01*
G75*
G02*
X77945000Y-94567500I0J-237500D01*
G01*
X77945000Y-95142500D01*
G75*
G02*
X77707500Y-95380000I-237500J0D01*
G01*
X77232500Y-95380000D01*
G75*
G02*
X76995000Y-95142500I0J237500D01*
G01*
X76995000Y-94567500D01*
G75*
G02*
X77232500Y-94330000I237500J0D01*
G01*
G37*
G36*
G01*
X77232500Y-92580000D02*
X77707500Y-92580000D01*
G75*
G02*
X77945000Y-92817500I0J-237500D01*
G01*
X77945000Y-93392500D01*
G75*
G02*
X77707500Y-93630000I-237500J0D01*
G01*
X77232500Y-93630000D01*
G75*
G02*
X76995000Y-93392500I0J237500D01*
G01*
X76995000Y-92817500D01*
G75*
G02*
X77232500Y-92580000I237500J0D01*
G01*
G37*
%TD*%
%TO.C,D4*%
G36*
G01*
X68977500Y-119730000D02*
X69452500Y-119730000D01*
G75*
G02*
X69690000Y-119967500I0J-237500D01*
G01*
X69690000Y-120542500D01*
G75*
G02*
X69452500Y-120780000I-237500J0D01*
G01*
X68977500Y-120780000D01*
G75*
G02*
X68740000Y-120542500I0J237500D01*
G01*
X68740000Y-119967500D01*
G75*
G02*
X68977500Y-119730000I237500J0D01*
G01*
G37*
G36*
G01*
X68977500Y-117980000D02*
X69452500Y-117980000D01*
G75*
G02*
X69690000Y-118217500I0J-237500D01*
G01*
X69690000Y-118792500D01*
G75*
G02*
X69452500Y-119030000I-237500J0D01*
G01*
X68977500Y-119030000D01*
G75*
G02*
X68740000Y-118792500I0J237500D01*
G01*
X68740000Y-118217500D01*
G75*
G02*
X68977500Y-117980000I237500J0D01*
G01*
G37*
%TD*%
%TO.C,D3*%
G36*
G01*
X60722500Y-119730000D02*
X61197500Y-119730000D01*
G75*
G02*
X61435000Y-119967500I0J-237500D01*
G01*
X61435000Y-120542500D01*
G75*
G02*
X61197500Y-120780000I-237500J0D01*
G01*
X60722500Y-120780000D01*
G75*
G02*
X60485000Y-120542500I0J237500D01*
G01*
X60485000Y-119967500D01*
G75*
G02*
X60722500Y-119730000I237500J0D01*
G01*
G37*
G36*
G01*
X60722500Y-117980000D02*
X61197500Y-117980000D01*
G75*
G02*
X61435000Y-118217500I0J-237500D01*
G01*
X61435000Y-118792500D01*
G75*
G02*
X61197500Y-119030000I-237500J0D01*
G01*
X60722500Y-119030000D01*
G75*
G02*
X60485000Y-118792500I0J237500D01*
G01*
X60485000Y-118217500D01*
G75*
G02*
X60722500Y-117980000I237500J0D01*
G01*
G37*
%TD*%
%TO.C,D2*%
G36*
G01*
X68977500Y-94330000D02*
X69452500Y-94330000D01*
G75*
G02*
X69690000Y-94567500I0J-237500D01*
G01*
X69690000Y-95142500D01*
G75*
G02*
X69452500Y-95380000I-237500J0D01*
G01*
X68977500Y-95380000D01*
G75*
G02*
X68740000Y-95142500I0J237500D01*
G01*
X68740000Y-94567500D01*
G75*
G02*
X68977500Y-94330000I237500J0D01*
G01*
G37*
G36*
G01*
X68977500Y-92580000D02*
X69452500Y-92580000D01*
G75*
G02*
X69690000Y-92817500I0J-237500D01*
G01*
X69690000Y-93392500D01*
G75*
G02*
X69452500Y-93630000I-237500J0D01*
G01*
X68977500Y-93630000D01*
G75*
G02*
X68740000Y-93392500I0J237500D01*
G01*
X68740000Y-92817500D01*
G75*
G02*
X68977500Y-92580000I237500J0D01*
G01*
G37*
%TD*%
%TO.C,D1*%
G36*
G01*
X60722500Y-94330000D02*
X61197500Y-94330000D01*
G75*
G02*
X61435000Y-94567500I0J-237500D01*
G01*
X61435000Y-95142500D01*
G75*
G02*
X61197500Y-95380000I-237500J0D01*
G01*
X60722500Y-95380000D01*
G75*
G02*
X60485000Y-95142500I0J237500D01*
G01*
X60485000Y-94567500D01*
G75*
G02*
X60722500Y-94330000I237500J0D01*
G01*
G37*
G36*
G01*
X60722500Y-92580000D02*
X61197500Y-92580000D01*
G75*
G02*
X61435000Y-92817500I0J-237500D01*
G01*
X61435000Y-93392500D01*
G75*
G02*
X61197500Y-93630000I-237500J0D01*
G01*
X60722500Y-93630000D01*
G75*
G02*
X60485000Y-93392500I0J237500D01*
G01*
X60485000Y-92817500D01*
G75*
G02*
X60722500Y-92580000I237500J0D01*
G01*
G37*
%TD*%
%TO.C,R32*%
G36*
G01*
X136000500Y-112426000D02*
X135525500Y-112426000D01*
G75*
G02*
X135288000Y-112188500I0J237500D01*
G01*
X135288000Y-111613500D01*
G75*
G02*
X135525500Y-111376000I237500J0D01*
G01*
X136000500Y-111376000D01*
G75*
G02*
X136238000Y-111613500I0J-237500D01*
G01*
X136238000Y-112188500D01*
G75*
G02*
X136000500Y-112426000I-237500J0D01*
G01*
G37*
G36*
G01*
X136000500Y-114176000D02*
X135525500Y-114176000D01*
G75*
G02*
X135288000Y-113938500I0J237500D01*
G01*
X135288000Y-113363500D01*
G75*
G02*
X135525500Y-113126000I237500J0D01*
G01*
X136000500Y-113126000D01*
G75*
G02*
X136238000Y-113363500I0J-237500D01*
G01*
X136238000Y-113938500D01*
G75*
G02*
X136000500Y-114176000I-237500J0D01*
G01*
G37*
%TD*%
%TO.C,R31*%
G36*
G01*
X141080500Y-112426000D02*
X140605500Y-112426000D01*
G75*
G02*
X140368000Y-112188500I0J237500D01*
G01*
X140368000Y-111613500D01*
G75*
G02*
X140605500Y-111376000I237500J0D01*
G01*
X141080500Y-111376000D01*
G75*
G02*
X141318000Y-111613500I0J-237500D01*
G01*
X141318000Y-112188500D01*
G75*
G02*
X141080500Y-112426000I-237500J0D01*
G01*
G37*
G36*
G01*
X141080500Y-114176000D02*
X140605500Y-114176000D01*
G75*
G02*
X140368000Y-113938500I0J237500D01*
G01*
X140368000Y-113363500D01*
G75*
G02*
X140605500Y-113126000I237500J0D01*
G01*
X141080500Y-113126000D01*
G75*
G02*
X141318000Y-113363500I0J-237500D01*
G01*
X141318000Y-113938500D01*
G75*
G02*
X141080500Y-114176000I-237500J0D01*
G01*
G37*
%TD*%
%TO.C,R30*%
G36*
G01*
X146033500Y-112426000D02*
X145558500Y-112426000D01*
G75*
G02*
X145321000Y-112188500I0J237500D01*
G01*
X145321000Y-111613500D01*
G75*
G02*
X145558500Y-111376000I237500J0D01*
G01*
X146033500Y-111376000D01*
G75*
G02*
X146271000Y-111613500I0J-237500D01*
G01*
X146271000Y-112188500D01*
G75*
G02*
X146033500Y-112426000I-237500J0D01*
G01*
G37*
G36*
G01*
X146033500Y-114176000D02*
X145558500Y-114176000D01*
G75*
G02*
X145321000Y-113938500I0J237500D01*
G01*
X145321000Y-113363500D01*
G75*
G02*
X145558500Y-113126000I237500J0D01*
G01*
X146033500Y-113126000D01*
G75*
G02*
X146271000Y-113363500I0J-237500D01*
G01*
X146271000Y-113938500D01*
G75*
G02*
X146033500Y-114176000I-237500J0D01*
G01*
G37*
%TD*%
%TO.C,R29*%
G36*
G01*
X151113500Y-112426000D02*
X150638500Y-112426000D01*
G75*
G02*
X150401000Y-112188500I0J237500D01*
G01*
X150401000Y-111613500D01*
G75*
G02*
X150638500Y-111376000I237500J0D01*
G01*
X151113500Y-111376000D01*
G75*
G02*
X151351000Y-111613500I0J-237500D01*
G01*
X151351000Y-112188500D01*
G75*
G02*
X151113500Y-112426000I-237500J0D01*
G01*
G37*
G36*
G01*
X151113500Y-114176000D02*
X150638500Y-114176000D01*
G75*
G02*
X150401000Y-113938500I0J237500D01*
G01*
X150401000Y-113363500D01*
G75*
G02*
X150638500Y-113126000I237500J0D01*
G01*
X151113500Y-113126000D01*
G75*
G02*
X151351000Y-113363500I0J-237500D01*
G01*
X151351000Y-113938500D01*
G75*
G02*
X151113500Y-114176000I-237500J0D01*
G01*
G37*
%TD*%
%TO.C,R28*%
G36*
G01*
X156193500Y-112426000D02*
X155718500Y-112426000D01*
G75*
G02*
X155481000Y-112188500I0J237500D01*
G01*
X155481000Y-111613500D01*
G75*
G02*
X155718500Y-111376000I237500J0D01*
G01*
X156193500Y-111376000D01*
G75*
G02*
X156431000Y-111613500I0J-237500D01*
G01*
X156431000Y-112188500D01*
G75*
G02*
X156193500Y-112426000I-237500J0D01*
G01*
G37*
G36*
G01*
X156193500Y-114176000D02*
X155718500Y-114176000D01*
G75*
G02*
X155481000Y-113938500I0J237500D01*
G01*
X155481000Y-113363500D01*
G75*
G02*
X155718500Y-113126000I237500J0D01*
G01*
X156193500Y-113126000D01*
G75*
G02*
X156431000Y-113363500I0J-237500D01*
G01*
X156431000Y-113938500D01*
G75*
G02*
X156193500Y-114176000I-237500J0D01*
G01*
G37*
%TD*%
%TO.C,R27*%
G36*
G01*
X161273500Y-112426000D02*
X160798500Y-112426000D01*
G75*
G02*
X160561000Y-112188500I0J237500D01*
G01*
X160561000Y-111613500D01*
G75*
G02*
X160798500Y-111376000I237500J0D01*
G01*
X161273500Y-111376000D01*
G75*
G02*
X161511000Y-111613500I0J-237500D01*
G01*
X161511000Y-112188500D01*
G75*
G02*
X161273500Y-112426000I-237500J0D01*
G01*
G37*
G36*
G01*
X161273500Y-114176000D02*
X160798500Y-114176000D01*
G75*
G02*
X160561000Y-113938500I0J237500D01*
G01*
X160561000Y-113363500D01*
G75*
G02*
X160798500Y-113126000I237500J0D01*
G01*
X161273500Y-113126000D01*
G75*
G02*
X161511000Y-113363500I0J-237500D01*
G01*
X161511000Y-113938500D01*
G75*
G02*
X161273500Y-114176000I-237500J0D01*
G01*
G37*
%TD*%
%TO.C,R26*%
G36*
G01*
X166353500Y-112426000D02*
X165878500Y-112426000D01*
G75*
G02*
X165641000Y-112188500I0J237500D01*
G01*
X165641000Y-111613500D01*
G75*
G02*
X165878500Y-111376000I237500J0D01*
G01*
X166353500Y-111376000D01*
G75*
G02*
X166591000Y-111613500I0J-237500D01*
G01*
X166591000Y-112188500D01*
G75*
G02*
X166353500Y-112426000I-237500J0D01*
G01*
G37*
G36*
G01*
X166353500Y-114176000D02*
X165878500Y-114176000D01*
G75*
G02*
X165641000Y-113938500I0J237500D01*
G01*
X165641000Y-113363500D01*
G75*
G02*
X165878500Y-113126000I237500J0D01*
G01*
X166353500Y-113126000D01*
G75*
G02*
X166591000Y-113363500I0J-237500D01*
G01*
X166591000Y-113938500D01*
G75*
G02*
X166353500Y-114176000I-237500J0D01*
G01*
G37*
%TD*%
%TO.C,R25*%
G36*
G01*
X171433500Y-112426000D02*
X170958500Y-112426000D01*
G75*
G02*
X170721000Y-112188500I0J237500D01*
G01*
X170721000Y-111613500D01*
G75*
G02*
X170958500Y-111376000I237500J0D01*
G01*
X171433500Y-111376000D01*
G75*
G02*
X171671000Y-111613500I0J-237500D01*
G01*
X171671000Y-112188500D01*
G75*
G02*
X171433500Y-112426000I-237500J0D01*
G01*
G37*
G36*
G01*
X171433500Y-114176000D02*
X170958500Y-114176000D01*
G75*
G02*
X170721000Y-113938500I0J237500D01*
G01*
X170721000Y-113363500D01*
G75*
G02*
X170958500Y-113126000I237500J0D01*
G01*
X171433500Y-113126000D01*
G75*
G02*
X171671000Y-113363500I0J-237500D01*
G01*
X171671000Y-113938500D01*
G75*
G02*
X171433500Y-114176000I-237500J0D01*
G01*
G37*
%TD*%
%TO.C,R24*%
G36*
G01*
X133366500Y-88234000D02*
X133841500Y-88234000D01*
G75*
G02*
X134079000Y-88471500I0J-237500D01*
G01*
X134079000Y-89046500D01*
G75*
G02*
X133841500Y-89284000I-237500J0D01*
G01*
X133366500Y-89284000D01*
G75*
G02*
X133129000Y-89046500I0J237500D01*
G01*
X133129000Y-88471500D01*
G75*
G02*
X133366500Y-88234000I237500J0D01*
G01*
G37*
G36*
G01*
X133366500Y-86484000D02*
X133841500Y-86484000D01*
G75*
G02*
X134079000Y-86721500I0J-237500D01*
G01*
X134079000Y-87296500D01*
G75*
G02*
X133841500Y-87534000I-237500J0D01*
G01*
X133366500Y-87534000D01*
G75*
G02*
X133129000Y-87296500I0J237500D01*
G01*
X133129000Y-86721500D01*
G75*
G02*
X133366500Y-86484000I237500J0D01*
G01*
G37*
%TD*%
%TO.C,R23*%
G36*
G01*
X138446500Y-88234000D02*
X138921500Y-88234000D01*
G75*
G02*
X139159000Y-88471500I0J-237500D01*
G01*
X139159000Y-89046500D01*
G75*
G02*
X138921500Y-89284000I-237500J0D01*
G01*
X138446500Y-89284000D01*
G75*
G02*
X138209000Y-89046500I0J237500D01*
G01*
X138209000Y-88471500D01*
G75*
G02*
X138446500Y-88234000I237500J0D01*
G01*
G37*
G36*
G01*
X138446500Y-86484000D02*
X138921500Y-86484000D01*
G75*
G02*
X139159000Y-86721500I0J-237500D01*
G01*
X139159000Y-87296500D01*
G75*
G02*
X138921500Y-87534000I-237500J0D01*
G01*
X138446500Y-87534000D01*
G75*
G02*
X138209000Y-87296500I0J237500D01*
G01*
X138209000Y-86721500D01*
G75*
G02*
X138446500Y-86484000I237500J0D01*
G01*
G37*
%TD*%
%TO.C,R22*%
G36*
G01*
X143526500Y-88234000D02*
X144001500Y-88234000D01*
G75*
G02*
X144239000Y-88471500I0J-237500D01*
G01*
X144239000Y-89046500D01*
G75*
G02*
X144001500Y-89284000I-237500J0D01*
G01*
X143526500Y-89284000D01*
G75*
G02*
X143289000Y-89046500I0J237500D01*
G01*
X143289000Y-88471500D01*
G75*
G02*
X143526500Y-88234000I237500J0D01*
G01*
G37*
G36*
G01*
X143526500Y-86484000D02*
X144001500Y-86484000D01*
G75*
G02*
X144239000Y-86721500I0J-237500D01*
G01*
X144239000Y-87296500D01*
G75*
G02*
X144001500Y-87534000I-237500J0D01*
G01*
X143526500Y-87534000D01*
G75*
G02*
X143289000Y-87296500I0J237500D01*
G01*
X143289000Y-86721500D01*
G75*
G02*
X143526500Y-86484000I237500J0D01*
G01*
G37*
%TD*%
%TO.C,R21*%
G36*
G01*
X148606500Y-88234000D02*
X149081500Y-88234000D01*
G75*
G02*
X149319000Y-88471500I0J-237500D01*
G01*
X149319000Y-89046500D01*
G75*
G02*
X149081500Y-89284000I-237500J0D01*
G01*
X148606500Y-89284000D01*
G75*
G02*
X148369000Y-89046500I0J237500D01*
G01*
X148369000Y-88471500D01*
G75*
G02*
X148606500Y-88234000I237500J0D01*
G01*
G37*
G36*
G01*
X148606500Y-86484000D02*
X149081500Y-86484000D01*
G75*
G02*
X149319000Y-86721500I0J-237500D01*
G01*
X149319000Y-87296500D01*
G75*
G02*
X149081500Y-87534000I-237500J0D01*
G01*
X148606500Y-87534000D01*
G75*
G02*
X148369000Y-87296500I0J237500D01*
G01*
X148369000Y-86721500D01*
G75*
G02*
X148606500Y-86484000I237500J0D01*
G01*
G37*
%TD*%
%TO.C,R20*%
G36*
G01*
X153686500Y-86484000D02*
X154161500Y-86484000D01*
G75*
G02*
X154399000Y-86721500I0J-237500D01*
G01*
X154399000Y-87296500D01*
G75*
G02*
X154161500Y-87534000I-237500J0D01*
G01*
X153686500Y-87534000D01*
G75*
G02*
X153449000Y-87296500I0J237500D01*
G01*
X153449000Y-86721500D01*
G75*
G02*
X153686500Y-86484000I237500J0D01*
G01*
G37*
G36*
G01*
X153686500Y-88234000D02*
X154161500Y-88234000D01*
G75*
G02*
X154399000Y-88471500I0J-237500D01*
G01*
X154399000Y-89046500D01*
G75*
G02*
X154161500Y-89284000I-237500J0D01*
G01*
X153686500Y-89284000D01*
G75*
G02*
X153449000Y-89046500I0J237500D01*
G01*
X153449000Y-88471500D01*
G75*
G02*
X153686500Y-88234000I237500J0D01*
G01*
G37*
%TD*%
%TO.C,R19*%
G36*
G01*
X158766500Y-88234000D02*
X159241500Y-88234000D01*
G75*
G02*
X159479000Y-88471500I0J-237500D01*
G01*
X159479000Y-89046500D01*
G75*
G02*
X159241500Y-89284000I-237500J0D01*
G01*
X158766500Y-89284000D01*
G75*
G02*
X158529000Y-89046500I0J237500D01*
G01*
X158529000Y-88471500D01*
G75*
G02*
X158766500Y-88234000I237500J0D01*
G01*
G37*
G36*
G01*
X158766500Y-86484000D02*
X159241500Y-86484000D01*
G75*
G02*
X159479000Y-86721500I0J-237500D01*
G01*
X159479000Y-87296500D01*
G75*
G02*
X159241500Y-87534000I-237500J0D01*
G01*
X158766500Y-87534000D01*
G75*
G02*
X158529000Y-87296500I0J237500D01*
G01*
X158529000Y-86721500D01*
G75*
G02*
X158766500Y-86484000I237500J0D01*
G01*
G37*
%TD*%
%TO.C,R18*%
G36*
G01*
X163846500Y-88234000D02*
X164321500Y-88234000D01*
G75*
G02*
X164559000Y-88471500I0J-237500D01*
G01*
X164559000Y-89046500D01*
G75*
G02*
X164321500Y-89284000I-237500J0D01*
G01*
X163846500Y-89284000D01*
G75*
G02*
X163609000Y-89046500I0J237500D01*
G01*
X163609000Y-88471500D01*
G75*
G02*
X163846500Y-88234000I237500J0D01*
G01*
G37*
G36*
G01*
X163846500Y-86484000D02*
X164321500Y-86484000D01*
G75*
G02*
X164559000Y-86721500I0J-237500D01*
G01*
X164559000Y-87296500D01*
G75*
G02*
X164321500Y-87534000I-237500J0D01*
G01*
X163846500Y-87534000D01*
G75*
G02*
X163609000Y-87296500I0J237500D01*
G01*
X163609000Y-86721500D01*
G75*
G02*
X163846500Y-86484000I237500J0D01*
G01*
G37*
%TD*%
%TO.C,R17*%
G36*
G01*
X168926500Y-88234000D02*
X169401500Y-88234000D01*
G75*
G02*
X169639000Y-88471500I0J-237500D01*
G01*
X169639000Y-89046500D01*
G75*
G02*
X169401500Y-89284000I-237500J0D01*
G01*
X168926500Y-89284000D01*
G75*
G02*
X168689000Y-89046500I0J237500D01*
G01*
X168689000Y-88471500D01*
G75*
G02*
X168926500Y-88234000I237500J0D01*
G01*
G37*
G36*
G01*
X168926500Y-86484000D02*
X169401500Y-86484000D01*
G75*
G02*
X169639000Y-86721500I0J-237500D01*
G01*
X169639000Y-87296500D01*
G75*
G02*
X169401500Y-87534000I-237500J0D01*
G01*
X168926500Y-87534000D01*
G75*
G02*
X168689000Y-87296500I0J237500D01*
G01*
X168689000Y-86721500D01*
G75*
G02*
X168926500Y-86484000I237500J0D01*
G01*
G37*
%TD*%
%TO.C,R16*%
G36*
G01*
X168926500Y-113126000D02*
X169401500Y-113126000D01*
G75*
G02*
X169639000Y-113363500I0J-237500D01*
G01*
X169639000Y-113938500D01*
G75*
G02*
X169401500Y-114176000I-237500J0D01*
G01*
X168926500Y-114176000D01*
G75*
G02*
X168689000Y-113938500I0J237500D01*
G01*
X168689000Y-113363500D01*
G75*
G02*
X168926500Y-113126000I237500J0D01*
G01*
G37*
G36*
G01*
X168926500Y-111376000D02*
X169401500Y-111376000D01*
G75*
G02*
X169639000Y-111613500I0J-237500D01*
G01*
X169639000Y-112188500D01*
G75*
G02*
X169401500Y-112426000I-237500J0D01*
G01*
X168926500Y-112426000D01*
G75*
G02*
X168689000Y-112188500I0J237500D01*
G01*
X168689000Y-111613500D01*
G75*
G02*
X168926500Y-111376000I237500J0D01*
G01*
G37*
%TD*%
%TO.C,R15*%
G36*
G01*
X171433500Y-89284000D02*
X170958500Y-89284000D01*
G75*
G02*
X170721000Y-89046500I0J237500D01*
G01*
X170721000Y-88471500D01*
G75*
G02*
X170958500Y-88234000I237500J0D01*
G01*
X171433500Y-88234000D01*
G75*
G02*
X171671000Y-88471500I0J-237500D01*
G01*
X171671000Y-89046500D01*
G75*
G02*
X171433500Y-89284000I-237500J0D01*
G01*
G37*
G36*
G01*
X171433500Y-87534000D02*
X170958500Y-87534000D01*
G75*
G02*
X170721000Y-87296500I0J237500D01*
G01*
X170721000Y-86721500D01*
G75*
G02*
X170958500Y-86484000I237500J0D01*
G01*
X171433500Y-86484000D01*
G75*
G02*
X171671000Y-86721500I0J-237500D01*
G01*
X171671000Y-87296500D01*
G75*
G02*
X171433500Y-87534000I-237500J0D01*
G01*
G37*
%TD*%
%TO.C,R14*%
G36*
G01*
X163846500Y-113126000D02*
X164321500Y-113126000D01*
G75*
G02*
X164559000Y-113363500I0J-237500D01*
G01*
X164559000Y-113938500D01*
G75*
G02*
X164321500Y-114176000I-237500J0D01*
G01*
X163846500Y-114176000D01*
G75*
G02*
X163609000Y-113938500I0J237500D01*
G01*
X163609000Y-113363500D01*
G75*
G02*
X163846500Y-113126000I237500J0D01*
G01*
G37*
G36*
G01*
X163846500Y-111376000D02*
X164321500Y-111376000D01*
G75*
G02*
X164559000Y-111613500I0J-237500D01*
G01*
X164559000Y-112188500D01*
G75*
G02*
X164321500Y-112426000I-237500J0D01*
G01*
X163846500Y-112426000D01*
G75*
G02*
X163609000Y-112188500I0J237500D01*
G01*
X163609000Y-111613500D01*
G75*
G02*
X163846500Y-111376000I237500J0D01*
G01*
G37*
%TD*%
%TO.C,R13*%
G36*
G01*
X166353500Y-89284000D02*
X165878500Y-89284000D01*
G75*
G02*
X165641000Y-89046500I0J237500D01*
G01*
X165641000Y-88471500D01*
G75*
G02*
X165878500Y-88234000I237500J0D01*
G01*
X166353500Y-88234000D01*
G75*
G02*
X166591000Y-88471500I0J-237500D01*
G01*
X166591000Y-89046500D01*
G75*
G02*
X166353500Y-89284000I-237500J0D01*
G01*
G37*
G36*
G01*
X166353500Y-87534000D02*
X165878500Y-87534000D01*
G75*
G02*
X165641000Y-87296500I0J237500D01*
G01*
X165641000Y-86721500D01*
G75*
G02*
X165878500Y-86484000I237500J0D01*
G01*
X166353500Y-86484000D01*
G75*
G02*
X166591000Y-86721500I0J-237500D01*
G01*
X166591000Y-87296500D01*
G75*
G02*
X166353500Y-87534000I-237500J0D01*
G01*
G37*
%TD*%
%TO.C,R12*%
G36*
G01*
X158766500Y-113126000D02*
X159241500Y-113126000D01*
G75*
G02*
X159479000Y-113363500I0J-237500D01*
G01*
X159479000Y-113938500D01*
G75*
G02*
X159241500Y-114176000I-237500J0D01*
G01*
X158766500Y-114176000D01*
G75*
G02*
X158529000Y-113938500I0J237500D01*
G01*
X158529000Y-113363500D01*
G75*
G02*
X158766500Y-113126000I237500J0D01*
G01*
G37*
G36*
G01*
X158766500Y-111376000D02*
X159241500Y-111376000D01*
G75*
G02*
X159479000Y-111613500I0J-237500D01*
G01*
X159479000Y-112188500D01*
G75*
G02*
X159241500Y-112426000I-237500J0D01*
G01*
X158766500Y-112426000D01*
G75*
G02*
X158529000Y-112188500I0J237500D01*
G01*
X158529000Y-111613500D01*
G75*
G02*
X158766500Y-111376000I237500J0D01*
G01*
G37*
%TD*%
%TO.C,R11*%
G36*
G01*
X161273500Y-89284000D02*
X160798500Y-89284000D01*
G75*
G02*
X160561000Y-89046500I0J237500D01*
G01*
X160561000Y-88471500D01*
G75*
G02*
X160798500Y-88234000I237500J0D01*
G01*
X161273500Y-88234000D01*
G75*
G02*
X161511000Y-88471500I0J-237500D01*
G01*
X161511000Y-89046500D01*
G75*
G02*
X161273500Y-89284000I-237500J0D01*
G01*
G37*
G36*
G01*
X161273500Y-87534000D02*
X160798500Y-87534000D01*
G75*
G02*
X160561000Y-87296500I0J237500D01*
G01*
X160561000Y-86721500D01*
G75*
G02*
X160798500Y-86484000I237500J0D01*
G01*
X161273500Y-86484000D01*
G75*
G02*
X161511000Y-86721500I0J-237500D01*
G01*
X161511000Y-87296500D01*
G75*
G02*
X161273500Y-87534000I-237500J0D01*
G01*
G37*
%TD*%
%TO.C,R10*%
G36*
G01*
X153686500Y-113126000D02*
X154161500Y-113126000D01*
G75*
G02*
X154399000Y-113363500I0J-237500D01*
G01*
X154399000Y-113938500D01*
G75*
G02*
X154161500Y-114176000I-237500J0D01*
G01*
X153686500Y-114176000D01*
G75*
G02*
X153449000Y-113938500I0J237500D01*
G01*
X153449000Y-113363500D01*
G75*
G02*
X153686500Y-113126000I237500J0D01*
G01*
G37*
G36*
G01*
X153686500Y-111376000D02*
X154161500Y-111376000D01*
G75*
G02*
X154399000Y-111613500I0J-237500D01*
G01*
X154399000Y-112188500D01*
G75*
G02*
X154161500Y-112426000I-237500J0D01*
G01*
X153686500Y-112426000D01*
G75*
G02*
X153449000Y-112188500I0J237500D01*
G01*
X153449000Y-111613500D01*
G75*
G02*
X153686500Y-111376000I237500J0D01*
G01*
G37*
%TD*%
%TO.C,R9*%
G36*
G01*
X156193500Y-87534000D02*
X155718500Y-87534000D01*
G75*
G02*
X155481000Y-87296500I0J237500D01*
G01*
X155481000Y-86721500D01*
G75*
G02*
X155718500Y-86484000I237500J0D01*
G01*
X156193500Y-86484000D01*
G75*
G02*
X156431000Y-86721500I0J-237500D01*
G01*
X156431000Y-87296500D01*
G75*
G02*
X156193500Y-87534000I-237500J0D01*
G01*
G37*
G36*
G01*
X156193500Y-89284000D02*
X155718500Y-89284000D01*
G75*
G02*
X155481000Y-89046500I0J237500D01*
G01*
X155481000Y-88471500D01*
G75*
G02*
X155718500Y-88234000I237500J0D01*
G01*
X156193500Y-88234000D01*
G75*
G02*
X156431000Y-88471500I0J-237500D01*
G01*
X156431000Y-89046500D01*
G75*
G02*
X156193500Y-89284000I-237500J0D01*
G01*
G37*
%TD*%
%TO.C,R8*%
G36*
G01*
X148606500Y-113126000D02*
X149081500Y-113126000D01*
G75*
G02*
X149319000Y-113363500I0J-237500D01*
G01*
X149319000Y-113938500D01*
G75*
G02*
X149081500Y-114176000I-237500J0D01*
G01*
X148606500Y-114176000D01*
G75*
G02*
X148369000Y-113938500I0J237500D01*
G01*
X148369000Y-113363500D01*
G75*
G02*
X148606500Y-113126000I237500J0D01*
G01*
G37*
G36*
G01*
X148606500Y-111376000D02*
X149081500Y-111376000D01*
G75*
G02*
X149319000Y-111613500I0J-237500D01*
G01*
X149319000Y-112188500D01*
G75*
G02*
X149081500Y-112426000I-237500J0D01*
G01*
X148606500Y-112426000D01*
G75*
G02*
X148369000Y-112188500I0J237500D01*
G01*
X148369000Y-111613500D01*
G75*
G02*
X148606500Y-111376000I237500J0D01*
G01*
G37*
%TD*%
%TO.C,R7*%
G36*
G01*
X151113500Y-89284000D02*
X150638500Y-89284000D01*
G75*
G02*
X150401000Y-89046500I0J237500D01*
G01*
X150401000Y-88471500D01*
G75*
G02*
X150638500Y-88234000I237500J0D01*
G01*
X151113500Y-88234000D01*
G75*
G02*
X151351000Y-88471500I0J-237500D01*
G01*
X151351000Y-89046500D01*
G75*
G02*
X151113500Y-89284000I-237500J0D01*
G01*
G37*
G36*
G01*
X151113500Y-87534000D02*
X150638500Y-87534000D01*
G75*
G02*
X150401000Y-87296500I0J237500D01*
G01*
X150401000Y-86721500D01*
G75*
G02*
X150638500Y-86484000I237500J0D01*
G01*
X151113500Y-86484000D01*
G75*
G02*
X151351000Y-86721500I0J-237500D01*
G01*
X151351000Y-87296500D01*
G75*
G02*
X151113500Y-87534000I-237500J0D01*
G01*
G37*
%TD*%
%TO.C,R6*%
G36*
G01*
X143526500Y-113126000D02*
X144001500Y-113126000D01*
G75*
G02*
X144239000Y-113363500I0J-237500D01*
G01*
X144239000Y-113938500D01*
G75*
G02*
X144001500Y-114176000I-237500J0D01*
G01*
X143526500Y-114176000D01*
G75*
G02*
X143289000Y-113938500I0J237500D01*
G01*
X143289000Y-113363500D01*
G75*
G02*
X143526500Y-113126000I237500J0D01*
G01*
G37*
G36*
G01*
X143526500Y-111376000D02*
X144001500Y-111376000D01*
G75*
G02*
X144239000Y-111613500I0J-237500D01*
G01*
X144239000Y-112188500D01*
G75*
G02*
X144001500Y-112426000I-237500J0D01*
G01*
X143526500Y-112426000D01*
G75*
G02*
X143289000Y-112188500I0J237500D01*
G01*
X143289000Y-111613500D01*
G75*
G02*
X143526500Y-111376000I237500J0D01*
G01*
G37*
%TD*%
%TO.C,R5*%
G36*
G01*
X146033500Y-89284000D02*
X145558500Y-89284000D01*
G75*
G02*
X145321000Y-89046500I0J237500D01*
G01*
X145321000Y-88471500D01*
G75*
G02*
X145558500Y-88234000I237500J0D01*
G01*
X146033500Y-88234000D01*
G75*
G02*
X146271000Y-88471500I0J-237500D01*
G01*
X146271000Y-89046500D01*
G75*
G02*
X146033500Y-89284000I-237500J0D01*
G01*
G37*
G36*
G01*
X146033500Y-87534000D02*
X145558500Y-87534000D01*
G75*
G02*
X145321000Y-87296500I0J237500D01*
G01*
X145321000Y-86721500D01*
G75*
G02*
X145558500Y-86484000I237500J0D01*
G01*
X146033500Y-86484000D01*
G75*
G02*
X146271000Y-86721500I0J-237500D01*
G01*
X146271000Y-87296500D01*
G75*
G02*
X146033500Y-87534000I-237500J0D01*
G01*
G37*
%TD*%
%TO.C,R4*%
G36*
G01*
X138573500Y-113126000D02*
X139048500Y-113126000D01*
G75*
G02*
X139286000Y-113363500I0J-237500D01*
G01*
X139286000Y-113938500D01*
G75*
G02*
X139048500Y-114176000I-237500J0D01*
G01*
X138573500Y-114176000D01*
G75*
G02*
X138336000Y-113938500I0J237500D01*
G01*
X138336000Y-113363500D01*
G75*
G02*
X138573500Y-113126000I237500J0D01*
G01*
G37*
G36*
G01*
X138573500Y-111376000D02*
X139048500Y-111376000D01*
G75*
G02*
X139286000Y-111613500I0J-237500D01*
G01*
X139286000Y-112188500D01*
G75*
G02*
X139048500Y-112426000I-237500J0D01*
G01*
X138573500Y-112426000D01*
G75*
G02*
X138336000Y-112188500I0J237500D01*
G01*
X138336000Y-111613500D01*
G75*
G02*
X138573500Y-111376000I237500J0D01*
G01*
G37*
%TD*%
%TO.C,R3*%
G36*
G01*
X140953500Y-89284000D02*
X140478500Y-89284000D01*
G75*
G02*
X140241000Y-89046500I0J237500D01*
G01*
X140241000Y-88471500D01*
G75*
G02*
X140478500Y-88234000I237500J0D01*
G01*
X140953500Y-88234000D01*
G75*
G02*
X141191000Y-88471500I0J-237500D01*
G01*
X141191000Y-89046500D01*
G75*
G02*
X140953500Y-89284000I-237500J0D01*
G01*
G37*
G36*
G01*
X140953500Y-87534000D02*
X140478500Y-87534000D01*
G75*
G02*
X140241000Y-87296500I0J237500D01*
G01*
X140241000Y-86721500D01*
G75*
G02*
X140478500Y-86484000I237500J0D01*
G01*
X140953500Y-86484000D01*
G75*
G02*
X141191000Y-86721500I0J-237500D01*
G01*
X141191000Y-87296500D01*
G75*
G02*
X140953500Y-87534000I-237500J0D01*
G01*
G37*
%TD*%
%TO.C,R2*%
G36*
G01*
X133493500Y-113126000D02*
X133968500Y-113126000D01*
G75*
G02*
X134206000Y-113363500I0J-237500D01*
G01*
X134206000Y-113938500D01*
G75*
G02*
X133968500Y-114176000I-237500J0D01*
G01*
X133493500Y-114176000D01*
G75*
G02*
X133256000Y-113938500I0J237500D01*
G01*
X133256000Y-113363500D01*
G75*
G02*
X133493500Y-113126000I237500J0D01*
G01*
G37*
G36*
G01*
X133493500Y-111376000D02*
X133968500Y-111376000D01*
G75*
G02*
X134206000Y-111613500I0J-237500D01*
G01*
X134206000Y-112188500D01*
G75*
G02*
X133968500Y-112426000I-237500J0D01*
G01*
X133493500Y-112426000D01*
G75*
G02*
X133256000Y-112188500I0J237500D01*
G01*
X133256000Y-111613500D01*
G75*
G02*
X133493500Y-111376000I237500J0D01*
G01*
G37*
%TD*%
%TO.C,R1*%
G36*
G01*
X135873500Y-89284000D02*
X135398500Y-89284000D01*
G75*
G02*
X135161000Y-89046500I0J237500D01*
G01*
X135161000Y-88471500D01*
G75*
G02*
X135398500Y-88234000I237500J0D01*
G01*
X135873500Y-88234000D01*
G75*
G02*
X136111000Y-88471500I0J-237500D01*
G01*
X136111000Y-89046500D01*
G75*
G02*
X135873500Y-89284000I-237500J0D01*
G01*
G37*
G36*
G01*
X135873500Y-87534000D02*
X135398500Y-87534000D01*
G75*
G02*
X135161000Y-87296500I0J237500D01*
G01*
X135161000Y-86721500D01*
G75*
G02*
X135398500Y-86484000I237500J0D01*
G01*
X135873500Y-86484000D01*
G75*
G02*
X136111000Y-86721500I0J-237500D01*
G01*
X136111000Y-87296500D01*
G75*
G02*
X135873500Y-87534000I-237500J0D01*
G01*
G37*
%TD*%
D10*
%TO.C,Q16*%
X134747000Y-117840000D03*
X133797000Y-115840000D03*
X135697000Y-115840000D03*
%TD*%
%TO.C,Q15*%
X154940000Y-117840000D03*
X153990000Y-115840000D03*
X155890000Y-115840000D03*
%TD*%
%TO.C,Q14*%
X134620000Y-82820000D03*
X135570000Y-84820000D03*
X133670000Y-84820000D03*
%TD*%
%TO.C,Q13*%
X153990000Y-84820000D03*
X155890000Y-84820000D03*
X154940000Y-82820000D03*
%TD*%
%TO.C,Q12*%
X139827000Y-117856000D03*
X138877000Y-115856000D03*
X140777000Y-115856000D03*
%TD*%
%TO.C,Q11*%
X160020000Y-117840000D03*
X159070000Y-115840000D03*
X160970000Y-115840000D03*
%TD*%
%TO.C,Q10*%
X139700000Y-82820000D03*
X140650000Y-84820000D03*
X138750000Y-84820000D03*
%TD*%
%TO.C,Q9*%
X160020000Y-82820000D03*
X160970000Y-84820000D03*
X159070000Y-84820000D03*
%TD*%
%TO.C,Q8*%
X144780000Y-117840000D03*
X143830000Y-115840000D03*
X145730000Y-115840000D03*
%TD*%
%TO.C,Q7*%
X165100000Y-117856000D03*
X164150000Y-115856000D03*
X166050000Y-115856000D03*
%TD*%
%TO.C,Q6*%
X144780000Y-82820000D03*
X145730000Y-84820000D03*
X143830000Y-84820000D03*
%TD*%
%TO.C,Q5*%
X165100000Y-82820000D03*
X166050000Y-84820000D03*
X164150000Y-84820000D03*
%TD*%
%TO.C,Q4*%
X149860000Y-117840000D03*
X148910000Y-115840000D03*
X150810000Y-115840000D03*
%TD*%
%TO.C,Q3*%
X170180000Y-117840000D03*
X169230000Y-115840000D03*
X171130000Y-115840000D03*
%TD*%
%TO.C,Q2*%
X149860000Y-82820000D03*
X150810000Y-84820000D03*
X148910000Y-84820000D03*
%TD*%
%TO.C,Q1*%
X170180000Y-82820000D03*
X171130000Y-84820000D03*
X169230000Y-84820000D03*
%TD*%
M02*
